<svg xmlns="http://www.w3.org/2000/svg" xmlns:xlink="http://www.w3.org/1999/xlink" viewBox="0 0 1744.6 1569.7"><defs><style>.a{fill:#07263f;}.a,.aa,.ab,.ac,.ad,.b,.c,.d,.e,.f,.g,.h,.i,.j,.k,.l,.m,.n,.o,.p,.q,.r,.s,.t,.u,.v,.w,.x,.y,.z{fill-rule:evenodd;}.b{fill:#0c416d;}.c{fill:#7f7f7f;}.d{fill:#e6e6e6;}.e{fill:#9b9b9b;}.f{fill:#c3c3c3;}.g{fill:#fff;}.h{fill:#a3a3a3;}.i{fill:#dae0ed;}.j{fill:#452312;}.k{fill:#003151;}.l{fill:#98c483;}.m{fill:#ccd2db;}.n{fill:#00558c;}.o{fill:#60321e;}.p{fill:#fccfa2;}.q{fill:#fcc58f;}.r{fill:#a7c4e4;}.s{fill:#869db8;}.t{fill:#f7a1a1;}.u{fill:#f8b504;}.v{fill:#8faed0;}.w{fill:#f0f6ff;}.x{fill:#e8effd;}.y{fill:#aac5fc;}.z{fill:#b5d4a6;}.aa{fill:#ffe548;}.ab{fill:#264376;}.ac{fill:#ebeef6;}.ad{fill:url(#a);}</style><linearGradient id="a" x1="3230.6" y1="2066.4" x2="3688.2" y2="2066.4" gradientTransform="matrix(0, -1, -1, 0, 2237.52, 3856.63)" gradientUnits="userSpaceOnUse"><stop offset="0.57" stop-color="#e9edf8"></stop><stop offset="1" stop-color="#fff"></stop></linearGradient></defs><path class="a" d="M287.8,711.5l-42.2,7.3V640.6c0-2.1-4.2-4-12.5-5.6-2.1-16-4.8-32-8.3-47.7q-12.7-57,24.2-109.4a207.1,207.1,0,0,1,44.2-8.7c-2.6,15.1-3.6,32.7-3.1,52.8.1,4,.2,8.2.5,12.6-4.8,5.5-7.2,11.1-7.2,17.1,0,9.7,2.5,19.8,7.3,30.5-.2,33-1.4,72.7-3.1,119.4C287.6,705.3,287.8,708.5,287.8,711.5Z"></path><path class="b" d="M249,478q-37,52.3-24.2,109.4c3.5,15.7,6.3,31.6,8.3,47.7l-1.9-.5a140.7,140.7,0,0,0-16-1.9,23.9,23.9,0,0,0,5-14.9c.2-21.9-5.5-40.1-16.8-54.8a195.8,195.8,0,0,1,3.3-30.4q6.5-32.4,23-43.2c11.4-7.2,17.6-10.9,18.6-11.3h.7ZM681.1,929.5l9.5-2.2c-1.7,3.1-3.6,6.4-5.6,9.8C684.1,935.2,682.8,932.8,681.1,929.5ZM534.2,952.8a191.7,191.7,0,0,1-20.6-8.2l-40.5-14.2L263.2,901.9c-9-1-16.8-7.2-23.3-18.5s-5.2-23,5-35.2c-2,5.2-.2,9.8,5.3,13.6,39.6,8.4,79.7,15,120,19.8,32.3,4,64.7,8.2,96.9,12.5,15.1,11.4,31.6,22.5,49.4,33.7a170,170,0,0,0,18.3,9.7Z"></path><path class="b" d="M290.7,582.4c5.8,12.8,15.1,26.1,27.9,40.5q28.8,31.8,88.5,30.2l-5.5,8.7a98.1,98.1,0,0,0-15.4,32.5l-98.4,17.3c-.1-3-.1-6.2-.1-9.7C289.4,655.1,290.5,615.4,290.7,582.4Zm-.1-47.7c-.2-4.5-.4-8.5-.5-12.6-.5-20.1.5-37.7,3.1-52.8a201,201,0,0,1,56.6,3.7,175.8,175.8,0,0,1-21.6,28.5c-2.1,2.4-12.8,11.5-31.8,27.4A39.7,39.7,0,0,0,290.6,534.7Zm400,392.6-9.5,2.2c-4-8.1-9.7-20.4-17.1-37-4.8-10.7-9.5-20.1-13.8-28.1l29-5c2.4.6,4.8,1.2,7.4,2.1,18.5,5.3,33.8,8.7,46.2,9.8-9.4,7.7-18.3,18-26.9,30.8C703,906.5,698,914.9,690.6,927.3ZM245,848.3a22,22,0,0,1,8.2-7.2l221.9,39,3.1.6c12.6,12.5,26.6,26.3,42.2,41.4L535,937.2v.5a134.4,134.4,0,0,1-18.3-9.7c-17.8-11.1-34.3-22.4-49.4-33.7-32.2-4.3-64.5-8.4-96.9-12.5q-60.7-7.2-120-19.8C244.8,858.1,243.1,853.5,245,848.3Z"></path><path class="c" d="M732.6,1294.4a13.3,13.3,0,0,0-2.4,3.1c.1-2.2.1-4.2.1-6.1Zm-219-349.8v179l5,1.9-.2,27.7v1.9c-16.7-3.3-31,3.5-42.6,20.4l-.2,48.4c-5.9-1.5-8.3-2.4-6.9-2.5v-95.7l5-2.2-.2-193.3ZM299.9,1224H432.5c-3.5.7-6.9,1.6-10.3,2.4s-11.8,2.6-21.7,5.5l-31.6,7.8-24.7,5.8-42-3.3a20.1,20.1,0,0,1-2.7-14.2A21.5,21.5,0,0,0,299.9,1224Zm183,5.6,34.3,54.3-1.4,27.4-39.6-51.8ZM621.3,1269c2.1,4.6-.9,10-8.9,16.2-7.1-.9-11.8-3.6-14.4-8.1s-3.7-7.9-2.7-10.9Z"></path><path class="d" d="M561.9,1225.2l62.9,6.7,65.8,10.4c2.8,3.5,5.7,6.8,8.7,10.3l-22.1-3.2c-20.7-2.7-41.1-5.6-61.6-8.5-13.3-1.9-26.3-3.7-39.1-5.7-5-.9-10-1.6-15.1-2.1ZM432.5,1224a15.9,15.9,0,0,0,3.3-.9,93.1,93.1,0,0,1,13.6-1.6h7.7l12.8,8.1a22.3,22.3,0,0,0-13-2.6,39.1,39.1,0,0,0-8.3,1.5c-9,2.5-21.4,5.5-36.9,8.9l-48.4,10.3-45.7,10c-11.9,2.2-24.8,5.3-38.7,9-8.1.1-16,.4-23.7.7l-.6-.5h.7l47.3-12.5,41.6-9,24.7-5.8c10.9-2.8,21.4-5.5,31.6-7.8s17.2-4.7,21.7-5.5Zm-130.1,43L470,1231.6v29.5L380.4,1276l-3.2-.7Q345.3,1268.1,302.4,1267Zm214.8-43.7a127,127,0,0,1-41.7.7l.2-48.4c11.8-17,26-23.7,42.6-20.4v-1.9l.7,22.9Q513.9,1203.2,517.2,1223.3Zm-34.3,6.3a201.5,201.5,0,0,0,34.9-3.7,7.8,7.8,0,0,1,.2,1.6,18,18,0,0,0,2.1,1.9l-3,54.4Zm137.3-22.2-52.4,4.6c.7-1.4,1.4-2.7,2.1-4.2a265.1,265.1,0,0,1,39.8-1.7A103.6,103.6,0,0,1,620.2,1207.4Z"></path><path class="e" d="M559.8,1263.3l1.6-30.1a148.3,148.3,0,0,1,15.1,2.1c12.9,2,26,3.8,39.1,5.7,20.4,3,41,5.8,61.6,8.5l22.1,3.2,20.7,25.5-82.1-7.8-16.6-1.5-26.1-2.6Zm170.5,34.2a11.1,11.1,0,0,1,2.4-3.1c8.5,11.4,17.1,22.8,25.5,34.3a24.5,24.5,0,0,1-11.3,2.4c-6.1-1.1-10.7-4.1-13.6-8.7a24.4,24.4,0,0,1-3.6-24.3h.2Zm-280.9-76H300.8a7.8,7.8,0,0,1,.9-2.1q1.7-5.4,7.8-4.8a529.4,529.4,0,0,1,53.5-1.5c16,.2,32.2.2,48.7,0l53.3-.2h3.7v8.7H449.4Zm-147,20.5,42,3.3-41.6,9Zm-47.7,25.4v-.5l.6.5C254.9,1267.2,254.8,1267.2,254.7,1267.4Z"></path><path class="f" d="M517.8,1225.9a234.4,234.4,0,0,1-34.9,3.7H470l-12.8-8.1h11.3c-1.4.2,1,1,6.9,2.5a124.2,124.2,0,0,0,41.7-.7C517.3,1224.1,517.6,1225,517.8,1225.9Zm-85.3-1.9H299.9a15.2,15.2,0,0,0,.9-2.5H449.5a91.6,91.6,0,0,0-13.6,1.6Zm131.9-6.7,59.8-4.8.6,19.4-62.9-6.7.2-4.8A22.6,22.6,0,0,0,564.4,1217.3Zm47.9,67.9c8.1-6.3,11.1-11.6,8.9-16.2l16.6,1.5c-1.5,2.6-4.3,5.7-8.5,9.3Zm-57.4,78.1.7-15.5,19.3-6.1c0,4.8-1,8.3-2.7,10.5a31.9,31.9,0,0,1-8.5,6.7c-4,2.1-6.7,3.5-8.3,4.1S555,1363.1,554.9,1363.3Z"></path><path class="g" d="M542.8,743.2l191,37.3c5.1.9,6.1,1.6,2.7,2.2L567.8,812.4c-3.2.6-7.4.4-12.5-.6L364,774.5c-5-.9-5.8-1.6-2.6-2.2L530,742.6A41,41,0,0,1,542.8,743.2ZM470,1231.4l-167.6,35.4c-5.9-.2-12-.2-18.2-.2h-5.5q20.9-5.7,38.7-9l45.7-10c16.2-3.3,32.3-6.7,48.4-10.3s27.9-6.4,36.9-8.9a60.3,60.3,0,0,1,8.3-1.5,22.1,22.1,0,0,1,13,2.6v2Zm154.2-18.9-59.8,4.8a50,50,0,0,0,3.3-5.5l52.4-4.6a3.2,3.2,0,0,1,2.7,1.4A6.7,6.7,0,0,1,624.2,1212.5Zm-49.3,129.2-19.3,6.1,1.6-29.2c5.7,1.1,9.9,3.6,12.8,7.4A22.1,22.1,0,0,1,574.9,1341.7Z"></path><path class="h" d="M470,1229.6h12.9l-6.6,29.9c-3.3,0-5.5.5-6.3,1.5v-31.4Z"></path><path class="i" d="M1414.9,653.7c0-.2-54.8,35.3-54.8,35m-20.2,27.7L560.8,853.6c-7.2,1.2-14.2,2.2-21.4,3a237.5,237.5,0,0,1-64-3L21.2,773.9C7.9,771.4,1,769.1.3,766.6s6.1-5.6,21.3-8.1l125.6-22.2v19h-.7c-13.6,2.6-20.4,5.7-20.4,9.4v1.1c1.1,2.1,6.1,4.1,14.9,6.2l5.6,1.4c13.5,2,29.9,3,49.3,3s36.1-1.2,50-3.7l5.5-1.1c9-2.1,14-4.5,14.9-6.7v-.7q0-4.8-20.1-8.7V719.1l42.2-7.3,97.9-17.6,122.3-21.6,5.1-.9c31.3,14.5,53.4,25.5,66,33.3,3.8,2.5,11.8,6.1,24,10.7l-48.9,8.2-3.3,1-.7.6-.2.6v.9l-.9,6.1c1.1,4.5,4.2,7.1,9.4,7.8l162.5,29.5c6.7,1.2,12.3,1.5,16.8.6l1.7-.6,262-44.7,2.6-1.9,3.3-1.4,4.1-4.2,3.7-6.3h.1c5.1-1.1,8.9-4.2,11.6-9.5l67.1-132.7,33.2-5.8a241,241,0,0,1,84.7.2l19,3.2c20.3,4.9,179.3,30.6,191.9,33.7m0,0,243.3,42.8c15.4,2.6,22.4,5.2,21.3,8.1s-7.9,4.5-20.9,6.9l-276.9,48.8c-7.6-5.7-22.3-14-30.1-18.8M1575,1389.1l1.6.2c22.9,4.1,34.3,9.3,34.3,15.5v2.1c-2.1,3.5-10.5,6.9-25,10.4l-9.3,2.1c-22.9,3.7-51,5.6-84,5.6s-61-2.2-84.7-6.6l-9.3-2.1a41.8,41.8,0,0,1-4.1-.9l-444.4,78.2a29.5,29.5,0,0,0-3.2-8.5,26.1,26.1,0,0,0-11.9-11.8c-7.4-4.5-16.2-14.5-26.4-30.2s-18.3-23.7-25.5-26.5c-4.8-11.5-11.9-25.4-21.4-41.5-14.1-23.9-22.1-37.3-23.4-40.4l-5.6-10.4,295.8-52.2a246.9,246.9,0,0,1,33.8-3.5l.9,19.4a20.8,20.8,0,0,0,6.9,14.4,19.6,19.6,0,0,0,15,5.3,19.8,19.8,0,0,0,14.4-6.7,20.3,20.3,0,0,0,5.3-15l-.6-15.4,9.7,1.5,184.3,32.6,9.8,90.9c0,2,1.5,3.6,4.6,5l12.9,4.1h1.9a17.1,17.1,0,0,1,4.5.9l9.3,1.5a361.7,361.7,0,0,0,50.5,3.1c22.9,0,42.4-1.2,58.6-3.8a44.3,44.3,0,0,0,6.4-1.7c10.4-2.5,16.1-4.8,17.3-7.2v-1Zm.8-5.5,1.7-15.9a20.6,20.6,0,0,0,13.6-6.7,20.3,20.3,0,0,0,5.3-15l-.2-6.3,71.7,12.6c28.4,5,28.2,9.9-.1,15Zm-786.3-10.8c-.2.7-2.1,6.6-5.6,17.3-2.1,7.3-3.7,13.5-4.7,18.5-2.5,14.2.1,25.6,7.8,34.1,7.7,5.6,18.6,14.5,32.7,26.6s25.9,22.3,32.8,27.4a152.1,152.1,0,0,0,16.8,11.1l-307.9,54.4a243.8,243.8,0,0,1-85.2,0l-38-6.6-3.5.7q-60.9,13.4-147.2,13.4t-147-13.4c-40.6-9-61-19.9-61-32.6,0-9.5,11.6-18.1,34.8-25.4l-91.9-16.2c-28.5-5-28.5-9.9,0-15l56-9.8c.2,4.5,2.1,8.5,5.5,12.3a20.4,20.4,0,0,0,29.1,1.2,19.4,19.4,0,0,0,7.1-14.2l.2-6.9,50.2-8.7,9.5,79.7c.9,6.3,11.5,11.6,32,16a126.9,126.9,0,0,0,18.5,3.3,415.2,415.2,0,0,0,53.8,3.2c22.9,0,43.4-1.4,61.2-4.2,4-.7,7.8-1.6,11.6-2.4,20.3-4.5,31-9.8,31.8-16L403,1399.9l109.5-19.3-7.7,148.7a20.5,20.5,0,0,0,5.5,15,19.8,19.8,0,0,0,14.2,6.7,20.4,20.4,0,0,0,15-5.3,19.6,19.6,0,0,0,6.9-14.2l8.1-158.2,209.6-36.9c6.3,8.7,12.4,17.6,18.5,26.5a44.6,44.6,0,0,0,3.7,4.7C787.5,1369.7,788.8,1371.3,789.5,1372.8ZM614.6,261.4c6.8,19.7,11.8,36.9,14.6,51.8.6,2.6,1,5.3,1.4,8.2-3.8-1.7-8.3-5.2-13.5-10.4s-9.9-9.7-13-11.3c-6.4,3.1-12.8,8.4-19.1,16-2.7,3-6.2,7.2-10.4,12.5-1.9,2.2-4,4.8-6.2,7.7q-13.5-12.7-37-41.7c-14.7-16.2-29.7-27.1-44.7-32.6-8.7-5.3-8.5-13.4.5-24.5,6.3-7.6,14.9-14.5,25.6-20.8a56.6,56.6,0,0,1-.5,10.9c0,4.7,1.4,7.9,4.2,9.5l39.3,31.8c6.2,4.8,11.9,9.4,17.2,13.6,8.5,6.6,16.2,12.1,22.7,16.8,7.9-8.5,10.5-17.8,7.9-27.9-1.5-6.3-6.3-15.2-14.4-26.5l14.4-.5a31.5,31.5,0,0,1,6.4,7.8C610.9,253.5,612.3,256.7,614.6,261.4Zm55.5,116.1c-5.8-10.4-12-29.5-18.3-57q-8.7-38.7-21.3-56.6c24.4,2.6,38.7,17.5,43,44.5Q676.5,328.7,670.1,377.5ZM677,512.3c-9.2,2.2-22.7,6.1-40.4,11.3,2-4.3,3.8-10.7,5.6-19.1,2.4-10.2,4-16.8,4.8-19.9a3.8,3.8,0,0,1,.9-2.4c4.8-13.3,13.3-20.8,25.3-22.5a253.6,253.6,0,0,1,1.6,26.6C675.2,497.6,675.9,506.2,677,512.3ZM802.5,620.8,784,657.6a66.3,66.3,0,0,0-24.7,7.1c-7.3-12-13.9-22.9-19.8-32.8Zm-359.1-333a39.2,39.2,0,0,1,15.7,1.4,4.9,4.9,0,0,1,2.2.5l15.2,8.3a65.8,65.8,0,0,1,20.4,28.7c4.7,11.8,5.6,22.9,2.6,33.4l-1.4,3.5a8.3,8.3,0,0,1-.9,1.6c-.6,1.5-1.1,2.7-1.7,4a37.7,37.7,0,0,1-14.4,13.9l-.9.9a2.4,2.4,0,0,0-1.6.5.5.5,0,0,1-.5.5c-.9,0-1.5.2-1.7.9-5,13.6-8.7,32.1-11,55.3-2.8,31-5,49.9-6.4,56.9s-2.4,15.1-3.8,27-3.3,21.2-4.6,27a49.1,49.1,0,0,0-33.4-4.5c-13,2.6-21.9,9.3-26.9,20.1q9.1-63.6,13.8-158.8-2.2-48.7,1.9-68.6C411,314.2,423.4,296.7,443.4,287.8Zm205.5,360,6.2-1,34.9-6.2c17.2,17.2,29.4,33,36.4,47.1,4.5,1.7,8.5,3.5,12.1,5L694,700.4c-10-8.2-16.6-13.4-19.7-15.7-5.5-1.1-16.2-2.7-32.1-4.7-14.1-1.5-25.4-3.2-33.6-5.5-13.6-3-25.3-7.4-34.8-13.5ZM542.8,743.2a37.4,37.4,0,0,0-12.6-.6L361.6,772.3c-3.2.6-2.4,1.4,2.6,2.2l191.3,37.3a36.9,36.9,0,0,0,12.5.6l168.7-29.7c3.2-.6,2.4-1.4-2.7-2.2Zm110.9-36-2.2.2-.5-.7Zm-500.2,591a11.9,11.9,0,0,1-.5-2.6v-1.1c1.6-7.7,14.5-14.1,38.5-19.3,18.3-4,39.3-6.4,63.1-7.7h.5c7.7-.4,15.5-.6,23.7-.7h5.5l18.2.2c28.6.7,53.5,3.5,74.8,8.1l3.2.7c22.4,5.3,34.2,11.8,35.2,19.1v1.6a4.8,4.8,0,0,1-.9,1.9c-1.9,4.6-8.2,8.8-19,12.6q-7.9,2.4-18.6,4.8c-19.2,4.2-41.4,6.8-66.8,7.9l-18.2.5h-9c-10.9,0-21.3-.2-31.2-.7q-34-1.8-60.5-7.7c-7.2-1.6-13.4-3.2-18.3-4.8C161.9,1307.1,155.3,1302.9,153.5,1298.2Zm206.6-19.1q-32.1-4.9-75.9-5l-17,.2h-4.5l-7.9.2a428.3,428.3,0,0,0-54.3,5.5c-21.4,3.8-32.8,8.5-34.3,14.1v1.1a2.8,2.8,0,0,0,.5,1.7c1.6,3.5,7.4,6.7,17.5,9.4,4.7,1.4,10.2,2.6,16.5,3.8a407.5,407.5,0,0,0,52,5.5c9.9.5,20.2.7,31.1.7h5.8c7.3-.1,14.5-.2,21.6-.5,21.3-.9,40.1-2.7,56.6-5.7a159.2,159.2,0,0,0,17-3.8c9.9-2.7,15.7-5.7,17.3-8.9a6,6,0,0,0,.5-1.4v-1.6c-.9-5.8-12.5-10.7-34.8-14.5C365.2,1279.8,362.7,1279.4,360.1,1279.1Z"></path><path class="j" d="M424.9,625.3a48.7,48.7,0,0,0-4.1,5.7q-5.4,8.3-13.8,22.2-59.7,1.6-88.5-30.2-19.2-21.3-27.9-40.5c-4.8-10.7-7.3-20.8-7.3-30.5q0-8.8,7.2-17.1a31.8,31.8,0,0,1,5.8-5.8c19.1-16,29.7-25,31.8-27.4a171.6,171.6,0,0,0,21.6-28.5c21.6-35.3,37-84.9,46.6-148.5q6.4-42.7,6.1-117.2c-.2-59.3.2-98.9,1.7-118.7,7.2-33.9,19.7-57.2,37.5-70.1,15.5-11,33.2-13,52.9-5.7a102,102,0,0,1,17.8,8.9A97.6,97.6,0,0,0,491.9,41c-10.4,17.7-14.6,41.1-12.3,70.4.9,8.1,2.4,20.4,4.5,37,14-5.3,29.6-16.4,47-33.2,12.8-12.1,23-21.8,31-29,10.4-9.5,16.6-14.9,18.6-15.9q62.8-4.5,96.3,23.4a81.1,81.1,0,0,1,12.1,12.1v5.7c-.2,16.8-5.2,30.5-14.9,40.9a57.2,57.2,0,0,1-12,10.4,27.8,27.8,0,0,0,3.8-16.6,16.4,16.4,0,0,1-.2-2.2l-.5-2.5a45.5,45.5,0,0,0-13-23,62.6,62.6,0,0,0-20.1-12.8c-4.8-1.6-9.7-3.1-14.5-4.5s-10.8-2.4-15.9-3.8a6.6,6.6,0,0,0-4.6-.2,34.5,34.5,0,0,0-14.5,7.9,199.8,199.8,0,0,0-27.9,31.6c-8.5,11.5-17.3,22.8-26.5,33.7l-7.4,8.9c-5.3,2.1-9,4.1-11.4,6.1a99,99,0,0,1,3.1,30.5c-10.8,6.3-19.3,13.3-25.6,20.8-9,11-9.2,19.2-.5,24.5a134.6,134.6,0,0,0-15.5,8.7,57.3,57.3,0,0,0-6.2,3.8c-.2.2-4.6,3.1-12.8,8.3a102.1,102.1,0,0,0-8.7,5.6C423.4,296.6,411,314,406,340q-4,20-1.9,68.6-4.7,95.4-13.8,158.8C381.9,590.3,393.3,609.5,424.9,625.3Z"></path><path class="k" d="M466.9,580.6c-7.4-.7-12.6-4.1-15.7-9.8s-3-11.5-.5-18.8c1.1-5.8,2.7-14.7,4.6-27s2.7-20.8,3.8-27Q476.5,544.3,466.9,580.6Z"></path><path class="k" d="M652.9,635.4a38.2,38.2,0,0,1,2.2,11.3l-6.2,1A97.8,97.8,0,0,0,652.9,635.4Z"></path><path class="a" d="M879.9,823.9c8.5,14.6,10.9,31.5,7.2,50.5-5,24.8-18.2,42.9-39.8,54.3q-29.4,15.6-65.7,46.1-20.2,17.4-60.7,52.7c-1.9-13.9-6.7-29.5-14.4-46.6s-14.9-29.9-19.3-39.3c-.7-1.6-1.5-3-2.2-4.5l5.6-9.8c7.2-12.4,12.4-20.8,15.4-25.4,8.5-12.8,17.5-23,26.9-30.8-12.3-1.1-27.7-4.5-46.2-9.8l-7.4-2.1Z"></path><path class="b" d="M612.1,1034.3c-12.8,11.9-23,28.1-31.1,48.7-4.8,13.6-9.8,32.3-14.6,56.4l6.1-116.8a38.2,38.2,0,0,1,12,.6c2.4.5,10.8,3.1,25.3,7.8Z"></path><path class="a" d="M360.1,1279.1c2.6.2,5.1.7,7.4,1.1,22.3,3.8,33.8,8.7,34.8,14.5v1.6a3.3,3.3,0,0,1-.5,1.4c-1.6,3.2-7.3,6.2-17.3,8.9a165,165,0,0,1-17,3.8c-16.5,3-35.3,4.8-56.6,5.7l-21.6.5h-5.8c-10.9,0-21.2-.2-31.1-.7a390.1,390.1,0,0,1-52-5.5c-6.3-1.1-11.8-2.5-16.5-3.8-9.9-2.7-15.7-5.8-17.5-9.4a5.5,5.5,0,0,1-.5-1.7v-1.1c1.5-5.6,12.9-10.3,34.3-14.1a447.5,447.5,0,0,1,54.3-5.5c2.6-.2,5.2-.2,7.9-.2h4.5c5.5-.2,11.1-.2,17-.2C313.4,1274.2,338.7,1275.8,360.1,1279.1Z"></path><path class="k" d="M523.6,1157.5l-3.5,71.9-2.1-1.9a10,10,0,0,1-.2-1.6l-.6-2.6c-2.2-13.4-1.6-29.1,1.9-47.1.9-4.6,2-9.3,3.2-14.1C522.7,1160.6,523.2,1159.1,523.6,1157.5Z"></path><path class="k" d="M585.2,1168.1l-11.8-4.2a64.3,64.3,0,0,0-8.2-2.7l.9-20.7c8.5,6.3,19.9,9.8,34.1,10.4a22.8,22.8,0,0,1-5.6,10.3A31.4,31.4,0,0,1,585.2,1168.1Z"></path><path class="k" d="M569.9,1207.7c-.7,1.5-1.4,2.8-2.1,4.2l-3.3,5.5a34.6,34.6,0,0,1-2.2,3.1l2.1-39.4c3,4.8,7.3,3.3,13.3-4.2.2,7.3-1.4,15.2-4.8,23.9Q571.3,1204.3,569.9,1207.7Z"></path><path class="l" d="M1459.1,1040.9Q1430.2,875,1353.9,740.2q-6.9-12.2-14.1-24c-5.1-8.4-10.3-16.6-15.5-24.7s-10.9-16.2-16.5-24.2l-2.2-3,10.5,3.3a269.1,269.1,0,0,1,50.9,23.9c7.8,4.8,15.5,10,23,15.7a260.8,260.8,0,0,1,25.4,22.1q60.1,59,93.5,162.5,20.1,62.9,29.7,140.2c.4,3.8.9,7.7,1.4,11.6a1240.4,1240.4,0,0,1,7.1,136.6c0,.2-.1,1.1-.2,2.7-.4,3.2-1.2,9.7-2.6,19.2-5.3,13.4-16.5,20.1-33.4,20.1-14.1,0-24.5-15.4-31-46.2-6.8-47.9-13.1-89.1-18.8-123.3C1460.5,1049,1459.7,1045,1459.1,1040.9Z"></path><path class="m" d="M673.2,459.6c-11.9,1.7-20.3,9.3-25.3,22.5A68.8,68.8,0,0,1,637,476a1.6,1.6,0,0,0-.9-.5c-11.4-8.1-21.2-12.1-29.6-12.1-1.7,0-7.2,4.2-16.1,12.6a37.6,37.6,0,0,1-6.9,5.6q-5.2,11.5-27.4,32.7a149.7,149.7,0,0,0-12.3,13.4c-10.9,13.6-16.5,26.9-16.5,39.8a75.2,75.2,0,0,0,1,11.3q4.5,24.9,28.6,56.1c2.2,2.7,4.3,5.5,6.2,8.1a8.6,8.6,0,0,0,.7,1c16.2,1.5,30.5.7,42.6-2.2,19.4-4.6,33-14.7,40.5-30.5l-1-1.6a1.9,1.9,0,0,0,.2-.7c3,5.8,5.2,14.6,6.4,26.4a109.7,109.7,0,0,1-4,12.3l-74.7,13.1a70.4,70.4,0,0,1-19.4-18.6,30.3,30.3,0,0,1-4.5-2.1q-17.1-8.4-40-27.4l-1.6-1.4c-19.2-15.9-33-26.1-41.5-31.1q9.6-36-7.8-82.5,2.3-10.3,6.4-56.9,3.6-34.8,11-55.3a1.7,1.7,0,0,1,1.7-.9.5.5,0,0,0,.5-.5,4.3,4.3,0,0,1,1.6-.5l.9-.9a38.5,38.5,0,0,0,14.4-13.9,40.1,40.1,0,0,0,1.7-4c.2-.5.6-1,.9-1.6l1.4-3.5c3-10.4,2.1-21.6-2.6-33.4a65.3,65.3,0,0,0-20.4-28.7l-15.2-8.3a13.1,13.1,0,0,0-2.2-.5,31.5,31.5,0,0,0-7.4-5.1l.5-1.7,12.8-8.3a39.6,39.6,0,0,1,6.2-3.8c5.7-3.5,10.9-6.4,15.5-8.7q22.7,8.3,44.7,32.6c15.7,19.3,28.1,33.3,37,41.7l6.2-7.7c4.2-5.3,7.7-9.4,10.4-12.5,6.3-7.6,12.6-12.9,19.1-16,3.1,1.6,7.4,5.5,13,11.3s9.7,8.7,13.5,10.4a40,40,0,0,0-1.4-8.2c5,4.8,7.4,9.8,7.4,14.9s-.7,9.5-2.2,10.7-3.7,1.7-7.4,2.4c-1.5-.6-4.8-3.5-9.9-8.8s-9.5-6.4-12.6-6.4-9.4,4.5-17,13.4a45.5,45.5,0,0,1-12.1,10.3,32.1,32.1,0,0,1-13.9,3.2q-1.3,0-56.5-50.4c8.7,15.5,15.2,35.9,19.4,61.4,3,15.2,6.9,36.2,11.9,62.6,4.8,19.2,12.4,28.7,22.4,28.7a11.4,11.4,0,0,1,1.9-1.9l9.9-10.7c8.1-8.5,21.3-12.8,39.4-12.8,8.2,0,17.3,2.6,27.4,7.9s18,7.3,22.5,7.3c2.7,0,12.5-3.2,29.2-9.5C687.3,444.9,681.8,453,673.2,459.6Z"></path><path class="m" d="M513.6,671.7l-5.1.9a39,39,0,0,0-5-5.6l2.2,1Z"></path><path class="m" d="M441.8,634.9c-6.7-.4-13.3,1.7-19.9,6.3a80.9,80.9,0,0,0-12.6,11.9c-2.4,2.6-4.8,5.5-7.7,8.7l5.5-8.7q8.4-14,13.8-22.2a34.5,34.5,0,0,1,4.1-5.7c2.6,1.2,5.2,2.6,8.1,3.8S438.5,632.8,441.8,634.9Z"></path><path class="n" d="M865.2,1458.4c5.2,3.5,11.4,5.2,18.6,5.3s12.3-.9,16.8-3.2,6.9-6.1,6.2-10.2-5.2-9.3-13.4-14.1Q873.2,1445.5,865.2,1458.4Z"></path><path class="b" d="M789.5,1372.8q-3.6,23.1,18.6,43.6c8.5,7.6,22.2,17.8,41,30.8,3-2.6,8.5-7.9,16.6-15.9s12.6-11.5,17.5-14.6c7.2,3,15.7,11.8,25.5,26.5s19,25.8,26.4,30.2a25.7,25.7,0,0,1,11.9,11.8,29.5,29.5,0,0,1,3.2,8.5,35.8,35.8,0,0,1,.7,7.2c-.4,13.5-7.1,20.8-19.9,22.1-20.2,2.1-40.6-3-61.6-15a143.2,143.2,0,0,1-16.8-11.1c-6.9-5.2-17.8-14.4-32.8-27.4s-25-21.1-32.7-26.6c-7.7-8.4-10.2-19.7-7.8-34.1,1-5,2.6-11.1,4.7-18.5Z"></path><path class="o" d="M689.2,106a76.7,76.7,0,0,0-12.1-12.1Q643.6,66,580.8,70.5q-3.1,1.5-18.6,15.9c-7.9,7.2-18.2,17-31,29q-26,25.2-47,33.2c-2.1-16.6-3.5-29-4.5-37Q476.4,67.8,492,41.2a97.8,97.8,0,0,1,20.4-19.1,113.3,113.3,0,0,1,21.8-11.9A119.1,119.1,0,0,1,586.4,0Q614.3.9,636,13.9a81.9,81.9,0,0,1,33.8,40.6Q688.4,75.9,689.2,106Z"></path><path class="a" d="M721,1027.5q5.6,71.1,44.1,159.1,21,48.3,67.6,137.9l5.6,10.4c-9.8-.5-20.2,2.1-31.1,7.8a79.7,79.7,0,0,0-24.9,20.6c-6.1-9-12.3-17.8-18.5-26.5-2-2.6-3.8-5.3-5.7-7.9-8.4-11.5-17-22.9-25.5-34.3l-2.2-3L720,1278.3l-20.7-25.5-8.7-10.3-11.1-13.3q-18-24.9-28-58.8-8.7-28.2-12.3-64.7c1-12.1-1.4-24.8-7.2-37.8-4-9.8-10.7-20.9-19.9-33.6l-2.5-3.5a458.4,458.4,0,0,0-35.2-48.9l5.5-105.2,70.4-12.5c4.3,8.1,8.9,17.5,13.8,28.1,7.6,16.7,13.3,29.1,17.1,37,1.6,3.2,3,5.8,4,7.7l2.2,4.5c4.5,9.5,10.9,22.5,19.3,39.3S719.1,1013.5,721,1027.5Z"></path><path class="n" d="M508.5,672.6,386.2,694.2a102.1,102.1,0,0,1,15.4-32.5c2.7-3.2,5.3-6.1,7.7-8.7a72.9,72.9,0,0,1,12.6-11.9c6.7-4.6,13.3-6.7,19.9-6.3,15.5,9.8,36.1,20.4,61.7,32.1A46.3,46.3,0,0,1,508.5,672.6Z"></path><path class="n" d="M478.2,880.7a253,253,0,0,0,59.6,2.4l-2.6,54.1-14.6-15.1C504.8,907,490.8,893.2,478.2,880.7Z"></path><path class="b" d="M153.5,1298.2c1.9,4.7,8.4,8.9,19.8,12.8q7.5,2.4,18.3,4.8c17.6,3.8,37.8,6.3,60.5,7.7,9.9.5,20.3.7,31.2.7h9c6.2-.1,12.3-.2,18.2-.5q38-1.7,66.8-7.9,10.8-2.4,18.6-4.8c10.8-3.8,17.1-8.1,19-12.6l-11.9,102-14.1,120.7c-.9,6.3-11.5,11.6-31.8,16l-11.6,2.4q-26.7,4.2-61.2,4.2a416.3,416.3,0,0,1-53.8-3.2,139,139,0,0,1-18.5-3.3c-20.4-4.5-31.1-9.8-32-16l-9.5-79.7Z"></path><path class="p" d="M603.6,244l-14.4.5c-6.3-3.1-12.1-6.2-17.6-9.3a177.8,177.8,0,0,1-23.3-16.5q-18.7-17.1-27.3-39.1c2.6-3,5.1-5.9,7.4-8.9,9.2-10.9,18.1-22.2,26.5-33.7a214,214,0,0,1,27.9-31.6,32.4,32.4,0,0,1,14.5-7.9,8.9,8.9,0,0,1,4.6.2c5.1,1.5,10.4,2.7,15.9,3.8a127.6,127.6,0,0,1,14.5,4.5,64.8,64.8,0,0,1,20.1,12.8,45.2,45.2,0,0,1,13,23l.5,2.5a15,15,0,0,1,.2,2.2,27.2,27.2,0,0,1-3.8,16.6Q653.2,207.4,603.6,244ZM789.5,1372.8a29,29,0,0,0-3.5-5c-2.2-2.7-3.5-4.3-3.7-4.7a83.7,83.7,0,0,1,24.9-20.6c10.9-5.7,21.3-8.3,31.1-7.8q2.3,4.5,23.4,40.4c9.5,16.1,16.6,30,21.4,41.5-4.8,3.1-10.7,8.1-17.5,14.6s-13.5,13.3-16.6,15.9c-18.8-13-32.6-23.3-41-30.8C793.3,1402.6,787.1,1388.2,789.5,1372.8Zm75.7,85.6c5.3-8.5,14.9-16,28.2-22.2,8.1,4.8,12.5,9.5,13.4,14.1s-1.2,7.4-6.2,10.2-10.2,3.5-16.8,3.2S870.4,1461.9,865.2,1458.4ZM466.9,580.6q12.8,7.2,41.5,31.1l1.6,1.4c15.4,12.8,28.7,21.8,40,27.4,1.5.7,3,1.5,4.5,2.1a71.8,71.8,0,0,0,19.4,18.6c9.5,6.1,21.1,10.5,34.8,13.5,8.2,2.1,19.4,4,33.6,5.5,16,2,26.6,3.5,32.1,4.7l19.7,15.7a19.7,19.7,0,0,0,2.6,2.1c9,8.5,10.7,14.9,5,19.2h-.6l-6.2-2.1c-3.5-6.7-6.9-10-10.4-10s-2.5,3.2,4.7,9.5c0,.1,0,.2.1.2.7,1.5,2,4.1,4,7.9a2.7,2.7,0,0,0,.5,1.1,13.3,13.3,0,0,1,1,2.4,3.5,3.5,0,0,1,.6.9l.6,1.7c.6,3.6-1.6,5.1-6.7,4.5a21.4,21.4,0,0,1-1.9-2.6l-.7-.9a18,18,0,0,1-1.9-2.1,8.7,8.7,0,0,0-.9-1.1l-.9-.7a4.3,4.3,0,0,0-.9-1c-3.8-4.5-6.9-7.8-9.3-10.3a43.6,43.6,0,0,0-3.8-3.7,29,29,0,0,0-9.8-6.4,20.5,20.5,0,0,0-5.5-1.6l-2.6-.5a1.5,1.5,0,0,0,.5.7,10.1,10.1,0,0,0,1.1,2.4c.6.7,1.2,1.6,1.9,2.6,2.5,3.1,5.9,6.9,10.4,11.6,2.1,2.5,4.1,4.7,5.7,6.9l.7,1.1c.9,1.5,1.6,3,2.4,4.5a2.7,2.7,0,0,0,.5,1.1c.4.9.7,1.9,1,2.7s.4,1.7.5,2.5c-4,0-8.1-1.5-12.3-4.6a32,32,0,0,1-5-4.1l-1-1-3-3c-8.2-9.5-14.7-15-19.9-16.1-1.1.2,2.6,5.2,11.3,14.9a22.9,22.9,0,0,1,4.2,5.6,5.4,5.4,0,0,1,.5,1.1c.4,1.4,0,2.2-1.4,2.5a17.8,17.8,0,0,1-6.4-.6,10.7,10.7,0,0,0-1.4-1.6c-6.2-7.1-15.7-12.8-28.7-17.2l-8.9-3.2c-12.3-4.7-20.2-8.3-24-10.7q-18.9-11.6-66-33.3c-2.6-1.1-5.3-2.4-7.9-3.7a10.7,10.7,0,0,1-2.2-1c-25.8-11.6-46.3-22.3-61.7-32.1l-8.8-5.8c-2.8-1.2-5.6-2.6-8.1-3.8q-47.4-23.4-34.4-57.6c4.8-10.8,13.9-17.5,26.9-20.1a47.4,47.4,0,0,1,33.4,4.5c-2.6,7.2-2.4,13.5.5,18.8S459.5,579.7,466.9,580.6Z"></path><path class="q" d="M689.9,640.6l-8.1-7.8c-26.6-25.6-43.4-42.6-50-50.9a78.3,78.3,0,0,1-4.8-29.6c.6-11.3,3.8-20.8,9.7-28.7,17.7-5.3,31.1-9,40.4-11.3,8.7,22.3,21.3,48.1,38,77.4,6.1,10.8,14.2,24.8,24.7,42.1,5.8,9.9,12.5,20.8,19.8,32.8a69.7,69.7,0,0,1,24.7-7.1l-15.1,29.7-30.5,5.3c-3.6-1.6-7.7-3.2-12.1-5Q715.6,666.5,689.9,640.6Zm-50.7,465.2c-2.6,3.2-9.4,10.4-20.6,21.7-8.5,8.7-14.7,16.5-18.5,23.3-14.1-.6-25.4-4.1-34.1-10.4v-1c4.8-23.9,9.8-42.7,14.6-56.4,8.1-20.7,18.3-36.9,31.1-48.7,9.3,12.6,16,23.8,19.9,33.6C637.7,1081,640.2,1093.7,639.2,1105.8Zm-54,62.3-7.8,8.7c-5.8,7.7-10.3,9-13.3,4.2l1-19.9c2.2.6,5,1.5,8.2,2.7Z"></path><path class="r" d="M1524,710.3l-108.5,19.2a249.6,249.6,0,0,0-25.4-22.1L1667,658.6c13.1-2.5,20.1-4.7,20.9-6.9v25.6c.6,2.6-6.4,5.1-20.9,7.8l-101.8,17.8ZM152.4,823.5,111,816.2,20.9,800.3C6.8,797.7-.3,795.1,0,792.5V766.4c.7,2.5,7.8,4.8,20.9,7.3l454.2,79.7a245.9,245.9,0,0,0,64,3c7.2-.7,14.2-1.6,21.4-3l779.3-137.2c4.8,7.9,9.5,16,14.1,24l-174,30.6-41.3,7.3L879.9,823.7,679.1,859l-29,5-70.3,12.5-19.2,3.3c-7.6,1.2-15.1,2.2-22.9,3a253.8,253.8,0,0,1-59.6-2.4l-3.1-.6L253.2,841Zm681.8-265-2.1,4,1.7-3.8ZM459.1,289.1a41,41,0,0,0-15.7-1.4c3.2-2.2,6.1-4.1,8.7-5.6l-.5,1.7A37.4,37.4,0,0,1,459.1,289.1Zm294,429.2L735.3,721l12.8,2.5h2.6L750,725h-1.3l-12,2.1,11.3,2.4-.5,1-2.2.2-.9,1,2.1.5-.2.5-5.6-1.1H740l-11.3,2.7-.9.6,11.3,1.1,6.1-.6-.9,1.6h-1.1l-12.4,1.9,11.1,2.5-.6,1h-2.1l-1.6,1.1,2.7.2-.2.7-6.4-.7h-.9l-19.4,4.1,12.9,1.9,12.3-2.2a2.3,2.3,0,0,0-.5,1l-9.3,1.5,4.8,1.5h4.1c.2,1.1,1.1,1.6,2.6,1.7l-3.8,7.7v5.1l2.2,2.1,1.1.2,262-44.8,6.1-3,7.8-8.9-3.7,6.3L1008,722l-3.3,1.4-2.6,1.9L740.1,770l-1.7.6q-6.9,1.4-16.8-.6L558.8,740.7c-5.2-.7-8.3-3.2-9.4-7.8l.9-6.1h1L722.5,758l13.9,1.1.7-2.6,1-1.9-6.3.2-89.7-16.7v-.2h-3.3l-1.1-.2.2-.9,3.5-.6,1.4,1.6c3,.7,5.1.9,6.4.6v.2l5.5,1.1,8.9-1.4c4.3,3,8.4,4.6,12.3,4.6a13.8,13.8,0,0,0-.5-2.5l2.6.6h1.9l32.1-4.8-14.6-3.2-1.4.2-.6-1.7a3.5,3.5,0,0,0-.6-.9l6.6-1.1-3.7-1.4h-4a5.4,5.4,0,0,1-.5-1.1l60.7-10.5ZM670.7,731l11.3-1.7.9,1h-1l.2.5h1.6a8.7,8.7,0,0,0,.9,1.1l-3.2-.5-1.9-1-8.1,1.5Zm16.6,4-13,2.6a5.4,5.4,0,0,1-.5-1.1l12.8-2.4A3.1,3.1,0,0,0,687.3,735Zm-37.3-.3,7.3-1.4,1,1-7.9,1.5A1.5,1.5,0,0,0,650,734.7Zm77.4-7.7h3.1l15.1-3.1-13.5-2.5-17.7,3.5Zm-2.6,1.5-13.3-3.2h-2.4l-11.6,2.6,13.4,2.2Zm-.7,6.5-1.9-.6-11.4,2.5v.2l11.8,1.6h1.6l11.4-1.9Zm-5,5v-.2l-11.6-2.2-25.6,4.7,13.4,1.7Zm14.4-7.4,11-2.7L731.2,728l-11.3,1.9,11.3,2.5Zm-5.2.7-11.4-3.2-15.5,2.2,13.4,2.7Zm-19.6,13.9,13.8-2.2.6-.2-12.9-2.5-12.1,2.1h-.7Zm19.1-3.2,11.3-2.1-13.9-2.5-11.3,2.7Z"></path><path class="s" d="M1565.3,703.1l13.3,268.8c-3.6,3.8-7.1,7.9-10.4,12.1a279.8,279.8,0,0,0-28.5,46.5l-15.6-320.2Zm19.4,400.9,5.1,104.6c-4.5-2.7-12.1-5.2-23.2-7.3,1.6-5.1,3.2-10.5,4.6-16.2,3-12.3,6.4-33.2,10.7-62.9C1583,1115.4,1583.8,1109.3,1584.7,1104Zm-7.2,263.7,13.9-126.4,4.7,98.4.2,6.3a20.7,20.7,0,0,1-5.3,15A19.8,19.8,0,0,1,1577.5,1367.7ZM120.2,1450l-.2,6.9a18.8,18.8,0,0,1-7.1,14.2,20.4,20.4,0,0,1-29.1-1.2,20.9,20.9,0,0,1-5.5-12.3,22.6,22.6,0,0,1-.1-2.6l32.7-638.6,41.4,7.3Zm403.4-292.5,10.6-204.7.9-15.2v-.5l2.6-54.1c7.7-.7,15.4-1.6,22.9-3l19.2-3.3-5.5,105.2-2.1,40.6-6.1,116.8v1l-.9,20.7-1,19.9-2.1,39.4-.2,4.8-.5,7.9-1.6,30.1-2.6,55.3-1.6,29.2-.7,15.5-.6,10.3-8.1,158.2a19.2,19.2,0,0,1-6.9,14.2,20,20,0,0,1-15,5.3,19.8,19.8,0,0,1-14.2-6.7,21.3,21.3,0,0,1-5.5-15l7.7-148.7,3.5-69.6,1.4-27.4,3-54.4ZM1179.9,771l24.4,499.7.6,15.4a20.7,20.7,0,0,1-5.3,15,19.8,19.8,0,0,1-14.4,6.7,20.4,20.4,0,0,1-15-5.3,20.8,20.8,0,0,1-6.9-14.4l-.9-19.4-23.8-490.3ZM701,721.4l-11.8-2.2a.3.3,0,0,1-.1-.2c-7.2-6.3-8.7-9.5-4.7-9.5s6.9,3.3,10.4,10Zm-6.3,9.3a10.1,10.1,0,0,0-1-2.4h4l3.7,1.4Zm-20.9,5.8a49.2,49.2,0,0,0-2.4-4.5l8.1-1.5,1.9,1,3.2.5,1.9,2.1Zm.5,1.1,13-2.6a14.3,14.3,0,0,0,1.9,2.6c5.1.7,7.3-.7,6.7-4.5l1.4-.2,14.6,3.2-32.1,4.8h-1.9l-2.6-.6C674.9,739.5,674.7,738.6,674.3,737.6Zm-23.8-1.8,7.9-1.5a27.2,27.2,0,0,0,5,4.1l-8.9,1.4-5.5-1.1v-.2A2,2,0,0,0,650.5,735.8Zm51.2-14.3c5.7-4.3,4-10.7-5-19.2l36.2-6.2h3.7l25.8,4.2-7.2,14.1-44.5,7.8h-5.3ZM743.9,737l-2.2,4.5L730.6,739l12.1-1.9Zm-3.7,16.4,2.2-.2,9.5-1.6-2.6,4.8c-2.7,5.3-1.6,7.4,3.3,6.4l263.3-51.2h-.1l-7.8,8.9-6.1,3-262,44.8-1.1-.2-2.2-2.1V761Zm-2.6-1.8h-4.1l-4.8-1.5,9.3-1.5A6.6,6.6,0,0,0,737.6,751.6Zm2.3-6.9-1.1,2.1-.5,1L726,750l-12.9-1.9,19.4-4.1h.9Zm1.2-2.4-.9,1.6-2.7-.2,1.6-1.1Zm9.5-18.7H748l-12.8-2.5,17.8-2.7Zm-3.3,6.7-1,1.7-2.1-.5.9-1Zm2.6-5.2-2.2,4.2-11.3-2.4,12-2.1h1.1Zm-4,7.5-1.1,2.7-6.1.6-11.3-1.1.9-.6,11.3-2.7h.7ZM683.8,731h-1.6l-.2-.5h1ZM669,715.2l-14.4-2.7-1.9-2.6,6.4-1A30.6,30.6,0,0,1,669,715.2ZM719.1,740l-23.9,4-13.4-1.7,25.6-4.7,11.6,2.2v.2Zm5-5,11.4,1.9-11.4,1.9h-1.6l-11.8-1.6h0l11.4-2.5Zm.7-6.5L711,730.1l-13.4-2.2,11.6-2.6h2.4Zm2.6-1.5-13-2.1,17.7-3.5,13.5,2.5L730.5,727Zm6.1,5.6-2.2-.2L720,729.9l11.3-1.9,13.3,1.9Zm-5.2.7L714.7,735l-13.4-2.7,15.5-2.2Zm-19.6,13.9-11.4-2.7h.7l12.1-2.1,12.9,2.5-.6.2Zm19.1-3.2-13.9-1.7,11.3-2.7,13.9,2.5Z"></path><path class="t" d="M213.1,635.3l2.2-2.6a143.5,143.5,0,0,1,16,1.9,5.3,5.3,0,0,1,1.9.5c8.3,1.6,12.5,3.5,12.5,5.6v.5c-.6,1.7-4.1,3.3-10.5,4.7h-.6l-3.2.7a164.7,164.7,0,0,1-19.2,2.4c-5,.2-10.3.5-16,.5-13.6,0-25.3-.7-34.8-2.4a28.5,28.5,0,0,1-4.1-.9c-5.9-1.4-9.4-2.7-10.3-4.2v-.9c0-2.6,4.8-4.7,14.4-6.4a130.1,130.1,0,0,1,13.8-1.7,28.4,28.4,0,0,0,2.4,2.6,1.7,1.7,0,0,1,.2.5c-2,.2-3.8.6-5.7.9-6.6,1.1-9.8,2.4-9.8,3.8s1.1,2.5,3.3,3.1l9.9,2.1c4.1.6,11.1,1,20.9,1.4a137.6,137.6,0,0,0,15.2-.7c3.1-.4,6.1-.9,8.7-1.5l4.5-.7c3.7-.9,5.7-2.1,6.1-3.5s-3.7-2.8-10.4-4.2C218.2,635.9,215.7,635.7,213.1,635.3Z"></path><path class="u" d="M245.7,718.8v40a57.7,57.7,0,0,1-24.9,10.4,148.3,148.3,0,0,1-44.6.9A54.6,54.6,0,0,1,147,759.7V641.8c.9,1.5,4.3,2.8,10.3,4.2l4.1.9a213.9,213.9,0,0,0,34.8,2.4c5.7,0,11-.1,16-.5a143.5,143.5,0,0,0,19.2-2.4l3.2-.7h.6c6.4-1.4,9.9-3,10.5-4.7v77.9Z"></path><path class="v" d="M146.9,755.1v4.6a54.3,54.3,0,0,0,29.2,10.4,148.3,148.3,0,0,0,44.6-.9,57.7,57.7,0,0,0,24.9-10.4v-3.5q20.1,3.9,20.1,8.7v.7c-.7,2.4-5.7,4.6-14.9,6.7l-5.5,1.1c-14,2.5-30.6,3.7-50,3.7s-35.8-1-49.3-3l-5.6-1.4c-8.7-2.1-13.6-4.1-14.9-6.2v-1.1c0-3.7,6.8-6.8,20.4-9.4A.9.9,0,0,0,146.9,755.1Z"></path><path class="a" d="M177.6,635.9a25,25,0,0,0,17.3,7.1,24.3,24.3,0,0,0,17.7-7.3l.2-.2a71.6,71.6,0,0,1,7.3,1c6.7,1.4,10.2,2.7,10.4,4.2s-2.4,2.6-6.1,3.5l-4.5.7c-2.6.6-5.6,1.1-8.7,1.5a138.8,138.8,0,0,1-15.2.7c-9.9-.2-16.8-.7-20.9-1.4a98.7,98.7,0,0,1-9.9-2.1c-2.2-.6-3.3-1.6-3.3-3.1s3.2-2.7,9.8-3.8A49.5,49.5,0,0,0,177.6,635.9Z"></path><path class="w" d="M694,700.4l44.5-7.7,30.5-5.3,15.1-29.7,18.5-36.8,29.6-58.3,2.1-4,3.7-7.2c2.6-5.2,6.3-8.3,11.3-9.3l263.1-51.2c5.1-1.1,6.3,1,3.8,6.2l-1.7,3.7-254,49.3q-7.5,1.4-11.4,9.3L752.2,751.7l-9.5,1.6a9.4,9.4,0,0,1-2.2.2c-1.6-.1-2.5-.7-2.6-1.7a8.8,8.8,0,0,1,.2-2.7,1.9,1.9,0,0,1,.5-1,4.5,4.5,0,0,1,.5-1l1.1-2.1.2-.7.9-1.6.6-1,2.2-4.5.9-1.6,1.1-2.7.2-.5,1-1.7.5-1,2.2-4.2.7-1.5,2.5-5.3.9-1.7-60.7,10.5c-2-3.8-3.2-6.4-4-7.9l11.8,2.2h.6l3.8.7h5.3l44.5-7.8,7.2-14.1-25.8-4.2h-3.7l-36.2,6.2A35.6,35.6,0,0,0,694,700.4ZM550.3,727v-.9l.2-.6.7-.6,3.3-1,48.9-8.2,8.9,3.2c13,4.5,22.5,10.2,28.7,17.2l-3.5.6-.2.9,1.1.2h3.3v.2l89.7,16.7,6.3-.2-1,1.9-.7,2.6L722.2,758,551.1,726.9ZM682,729.2l-11.3,1.7c-1.6-2.1-3.6-4.5-5.7-6.9a144.1,144.1,0,0,1-10.4-11.6l14.4,2.7c1.2,1.1,2.6,2.4,3.8,3.7S678.3,724.8,682,729.2Zm-22.8-20.4-6.4,1a4.8,4.8,0,0,1-1.1-2.4l2.2-.2A24.3,24.3,0,0,1,659.2,708.8Zm-1.9,24.5-7.3,1.4a28.6,28.6,0,0,0-4.2-5.6c-8.7-9.5-12.5-14.5-11.3-14.9,5.2,1.1,11.8,6.6,19.9,16.1A40.4,40.4,0,0,1,657.3,733.3Z"></path><path class="x" d="M912.3,628.3c3.5-8.9,9.8-16.2,19-21.8s18.2-8.2,27.7-7.3,16.4,4.7,20.7,11.6,4.6,14.7,1.1,23.7-9.7,16.2-18.6,21.8-18.3,8.2-27.9,7.3-16.4-4.8-20.6-11.8S908.9,637.2,912.3,628.3Z"></path><path class="y" d="M1094.6,569.4l-67.1,132.7c-2.6,5.3-6.4,8.4-11.6,9.5L752.6,762.8c-5,1-6.1-1.1-3.3-6.4l2.6-4.8,96.9-192.3c2.6-5.3,6.4-8.3,11.4-9.3l254-49.3,9.3-1.9c5.1-1.1,6.2,1,3.5,6.3ZM912.3,628.3q-4.9,13.4,1.5,23.4c4.2,6.9,11,10.9,20.6,11.8s18.8-1.6,27.9-7.3,15.2-13,18.6-21.8,3-16.7-1.1-23.7-11.1-10.7-20.7-11.6-18.7,1.6-27.7,7.3S915.7,619.5,912.3,628.3Z"></path><path class="q" d="M589.2,244.3c8.2,11.4,12.9,20.2,14.4,26.5,2.6,10,0,19.3-7.9,27.9-6.6-4.7-14.1-10.3-22.7-16.8-5.3-4.2-11-8.8-17.2-13.6-23.2-18.8-36.3-29.5-39.3-31.8s-4.2-4.8-4.2-9.5a56.1,56.1,0,0,0,.5-10.9,99,99,0,0,0-3.1-30.5c2.4-2,6.2-4,11.4-6.1a100.4,100.4,0,0,0,27.3,39.1,183.4,183.4,0,0,0,23.3,16.5C577,238.1,582.9,241.2,589.2,244.3Z"></path><path class="z" d="M1415.5,1201.2q-15.7-82.5-26.1-131.2-21.2-97.8-52.7-147-42-66.7-111.5-66.8a115.2,115.2,0,0,0-12,.9c-1.2.2-2.7-.6-4.6-2.4l1.5-4.2q149.4-54.3,230.9,141.4c6.3,15.6,12.3,32,17.8,49.2.7,4,1.4,8.1,2.1,12q8.5,51.5,18.8,123.3,9.6,46.2,31,46.2c17,0,28.1-6.7,33.4-20.1,1.4-9.5,2.2-16,2.6-19.2a22.8,22.8,0,0,0,.2-2.7,1237.8,1237.8,0,0,0-7.1-136.6c-.5-4-1-7.8-1.4-11.6.2-.6.5-1.1.7-1.6a275.8,275.8,0,0,1,28.5-46.5,153.4,153.4,0,0,1,10.4-12.1q64.1-71.1,166.6-56.7-67.5,23.6-106.4,71.4c-17,20.7-32.5,49.7-46.8,86.8-2.2,5.7-4.6,15.9-7.1,30.6-.9,5.3-1.9,11.3-2.7,18.1q-6.3,44.5-10.7,62.9a164.1,164.1,0,0,1-4.6,16.2c-1,2.7-1.9,5.5-2.7,8.1h-6.9c3.2,1.2,5,2.6,5.3,3.8s-1.2,2.8-1.9,4.2v.2a11,11,0,0,1-5.1,2.2l-6.3,1.6-14.4,2.7c-8.5,1.2-23.2,2.2-43.7,2.7s-36.5-1.5-49.8-4.5a66.3,66.3,0,0,1-8.9-1.9c-8.1-1.7-12.3-4.2-12.8-7.3.2-1.2,2.1-2.6,5.3-4.1h-7.4C1416.5,1206.5,1416,1203.9,1415.5,1201.2Z"></path><path class="i" d="M629.2,313.2a407.8,407.8,0,0,0-14.6-51.8,46.7,46.7,0,0,1,16,2.5q12.6,17.9,21.3,56.6c6.3,27.6,12.5,46.6,18.3,57,11,13,17.3,26.9,19.1,41.6a48.3,48.3,0,0,1,0,16.1c-16.7,6.3-26.4,9.5-29.2,9.5-4.6,0-12.1-2.5-22.5-7.3s-19.2-7.9-27.4-7.9c-18.2,0-31.3,4.2-39.4,12.8-3.5,3.6-6.7,7.2-9.9,10.7a11.4,11.4,0,0,0-1.9,1.9c-10,0-17.6-9.5-22.4-28.7-5-26.5-8.9-47.3-11.9-62.6q-6.5-38.2-19.4-61.4,55.2,50.4,56.5,50.4a32.1,32.1,0,0,0,13.9-3.2,44,44,0,0,0,12.1-10.3c7.7-8.9,13.3-13.4,17-13.4s7.3,2.1,12.6,6.4,8.5,8.2,9.9,8.8c3.8-.6,6.3-1.4,7.4-2.4s2.2-4.7,2.2-10.7S634.2,318,629.2,313.2Z"></path><path class="i" d="M631.8,581.9a147.2,147.2,0,0,0,6.9,15.2c.7,1.4,3.2,5.6,7.3,12.6a10.1,10.1,0,0,0,1,1.6q-11.4,23.6-40.5,30.5c-12.3,3-26.4,3.7-42.6,2.2a4.3,4.3,0,0,1-.7-1c-1.9-2.6-4-5.3-6.2-8.1q-24.2-31.2-28.6-56.1a64.9,64.9,0,0,1-1-11.3c0-12.8,5.5-26,16.5-39.8a164.8,164.8,0,0,1,12.3-13.4c14.7-14.1,23.9-25,27.4-32.7a37.6,37.6,0,0,0,6.9-5.6c9-8.4,14.4-12.6,16.1-12.6,8.4,0,18.3,4.1,29.6,12.1a1.2,1.2,0,0,1,.9.5c3.5,2.2,7.1,4.2,10.9,6.1a4.2,4.2,0,0,0-.9,2.4c-.9,3.1-2.5,9.8-4.8,19.9-1.7,8.4-3.6,14.7-5.6,19.1-5.8,7.9-9,17.5-9.7,28.7A78.5,78.5,0,0,0,631.8,581.9Z"></path><path class="aa" d="M1594.1,1216.2a.3.3,0,0,0-.1.2l-.2.2h-.1l-13.3,6.3-7.9,2.1-8.3,1.7-9.7,1.5-5.1.6a573.4,573.4,0,0,1-57.5,2.6q-41,0-70.9-5.1l-1.9-.2h-.7a85,85,0,0,0-8.3-1.9c-13.3-3-20.4-6.3-21.7-9.9v-1c0-4.5,9-8.5,27.3-12q.8,3.9,1.5,8.1h7.4c-3.2,1.5-5,2.8-5.3,4.1.5,3.1,4.7,5.6,12.8,7.3a53.6,53.6,0,0,0,8.9,1.9q19.9,4.5,49.8,4.5c20.6-.6,35.1-1.5,43.7-2.7l14.4-2.7,6.3-1.6a11.5,11.5,0,0,0,5.1-2.2v-.2a5.3,5.3,0,0,0,1.9-4v-.2c-.2-1.2-2.1-2.6-5.3-3.8h6.9c.9-2.6,1.9-5.3,2.7-8.1,11,2.1,18.8,4.6,23.2,7.3a8.9,8.9,0,0,1,2.6,2.1l.9,1.4h.1a4.9,4.9,0,0,1,.6,1.6v2Z"></path><path class="u" d="M1398.3,1304.8l-9.9-90.4c1.2,3.6,8.5,6.9,21.7,9.9,3,.6,5.8,1.2,8.3,1.9h.7l1.9.2c19.9,3.5,43.6,5.1,70.9,5.1a573.4,573.4,0,0,0,57.5-2.6l5.1-.6,9.7-1.5c3.1-.6,5.9-1.1,8.3-1.7l7.9-2.1,13.3-6.3h.1l.2-.2c0-.1,0-.2.1-.2l-2.6,25-13.9,126.4-1.7,15.9-.7,5.6-.9,7.4v1c-1.1,2.4-6.9,4.7-17.3,7.2a39.1,39.1,0,0,1-6.4,1.7c-16.2,2.6-35.8,3.8-58.6,3.8a360.7,360.7,0,0,1-50.5-3.1l-9.3-1.5a19.9,19.9,0,0,0-4.5-.9h-1.9l-12.9-4.1c-3-1.4-4.6-3-4.6-5Z"></path><path class="ab" d="M1560.4,1217.3a31.7,31.7,0,0,0,1.9-4.2v.2A4.7,4.7,0,0,1,1560.4,1217.3Z"></path><path class="ac" d="M1022,290.1v66.3c0,13.4-6.7,21.3-19.9,23.8l-64.9,11.6a27.1,27.1,0,0,1-9.4.1,13.9,13.9,0,0,1-7.1-4.2c-2.2-2.8-3.3-7.1-3.3-12.8V308.6c0-13.3,6.6-21.1,19.8-23.3l64.9-11.6a32,32,0,0,1,7.3-.5,18.1,18.1,0,0,1,3.5.7C1019.1,275.7,1022,281,1022,290.1ZM931.5,186.5V228c0,8.4-4.2,13.4-12.6,14.9l-40.6,7.2a13.8,13.8,0,0,1-5.7.1,8.7,8.7,0,0,1-4.6-2.5q-2.1-2.8-2.1-8.1V198.2c0-8.4,4.1-13.3,12.3-14.6l40.6-7.2a19.1,19.1,0,0,1,4.7-.2,8,8,0,0,1,2.1.5C929.5,177.6,931.5,180.9,931.5,186.5Z"></path><path class="ad" d="M215.3,632.7l-2.2,2.6-.2.2a24.3,24.3,0,0,1-17.7,7.3,24.8,24.8,0,0,1-17.3-7.1.6.6,0,0,1-.2-.5l-2.4-2.6a25,25,0,0,1-5-15.2c.1-10.7-2.7-19.4-8.5-26.3l-1.7-.6c-29.7-12.6-47.9-30.8-54.8-54.9h0q-12.5-39.9,8.1-64.4c10.2-13.3,19.6-22.7,28.2-28.1h.1c7.2-5,19.1-12.4,35.9-22.3,8.5-5.1,13.1-12.6,13.6-22.7s-5.2-16.5-15.1-22.1H176q-33.5-19.3-51-40.5h-.1c-16.4-19.6-20.4-41.1-12.5-64.7h.1c6.9-20.7,15.4-34.8,25.3-42.1h.1a338.5,338.5,0,0,1,28.6-20.2c2.7-4.3,4-13.3,3.7-26.9a25.1,25.1,0,0,1,24.4-25.6,25.3,25.3,0,0,1,25.7,24.4c1,37.8-7.9,61.2-26.6,70.4h-.1c-9.7,6.2-17.6,11.8-23.8,16.7h.1c-3.5,3.7-6.8,10.2-10,19.3-2,6.1-.9,11.6,3.3,16.6,8.9,10.2,21.4,19.9,37.7,29.5h.1q43.5,24.9,40.4,68c-1.4,28-14.1,49.2-38.4,63.6-15.5,9-26.5,15.9-33,20.4h-.2c-4.8,3.5-10.4,9.3-16.6,17.1-2.6,4.8-2.6,11.3-.1,19.1,3.8,9.5,12,17.2,24.5,23,7.6,1.9,14.2,6.1,20.2,12.8,2,2.1,3.8,4.2,5.7,6.6,11.4,14.6,17.1,32.8,16.8,54.8A24.5,24.5,0,0,1,215.3,632.7Z"></path></svg>