<svg xmlns="http://www.w3.org/2000/svg" xmlns:xlink="http://www.w3.org/1999/xlink" viewBox="0 0 1092.9 1100.5"><defs><style>.a{fill:#07263f;}.a,.aa,.ab,.ac,.ad,.ae,.af,.b,.c,.d,.e,.f,.g,.h,.i,.j,.k,.l,.m,.n,.o,.p,.q,.r,.s,.t,.u,.v,.w,.x,.y,.z{fill-rule:evenodd;}.b{fill:#f8b504;}.c{fill:#dbe8f9;}.d{fill:#f3f7ff;}.e{fill:#dae0ed;}.f{fill:#ffdb59;}.g{fill:#dfa304;}.h{fill:#ccd2db;}.i{fill:#8398c4;}.j{fill:#8da4ce;}.k{fill:#607bb4;}.l{fill:#60321e;}.m{fill:#452312;}.n{fill:#9e7c5c;}.o{fill:#fcc58f;}.p{fill:#fccfa2;}.q{fill:#d3d727;}.r{fill:#bfd1ea;}.s{fill:#0c416d;}.t{fill:#001522;}.u{fill:#efba89;}.v{fill:#ceab8b;}.w{fill:#595959;}.x{fill:#aac5fc;}.y{fill:#eefcff;}.z{fill:#8faed0;}.aa{fill:#b5d4a6;}.ab{fill:#98c483;}.ac{fill:#a6ace0;}.ad{fill:#264376;}.ae{fill:#345ba7;}.af{fill:url(#a);}</style><linearGradient id="a" x1="545.73" y1="750.06" x2="545.73" y2="594.74" gradientUnits="userSpaceOnUse"><stop offset="0.57" stop-color="#e9edf8"></stop><stop offset="1" stop-color="#8398c4"></stop></linearGradient></defs><path class="a" d="M927.8,216.3V459.7l-17.3,2.9V216.3h17.3Zm23.1-.5,9.4-.3v44.2a3.1,3.1,0,0,1-.1,1,11.4,11.4,0,0,1,3.9,2.5,11.9,11.9,0,0,1,3.6,8.7,11.4,11.4,0,0,1-3.6,8.5,11.6,11.6,0,0,1-8.5,3.6,12.1,12.1,0,0,1-12.1-12.1,12.2,12.2,0,0,1,3.5-8.7,16.1,16.1,0,0,1,4-2.6,2.2,2.2,0,0,1-.1-.9Zm37.7,440.3v.9l-.3-.3A.9.9,0,0,0,988.6,656.1Zm-627.1,206h0c-2,2.2-3.9,4.6-5.7,7l-1.1,1.6a70.6,70.6,0,0,0-5.5,11c-2.4,6.3-4.6,13.1-6.7,20.4s-3,13.5-2.9,18.6a11.7,11.7,0,0,0,6.9,11q6.9,3.3,10.2-2.4a16,16,0,0,1,4.9-6,6.2,6.2,0,0,1,4-1.6c5.3-.4,8,2,8,7.2a16.4,16.4,0,0,1-8.2,14.4,24.9,24.9,0,0,1-15.4,3.4,33.4,33.4,0,0,1-8.8-1.7,24.2,24.2,0,0,1-15.9-14.5c-.1-.6-.3-1.1-.4-1.6a1.9,1.9,0,0,1-.3-1c-2.3-7-2.7-15.3-1.3-25a87.1,87.1,0,0,1,2-9.6,143.4,143.4,0,0,1,5.4-14.7c1.1-2.6,2.3-5.2,3.7-7.9s2.6-5.5,4.1-8.3c.7-1.3,1.3-2.7,1.9-4h.1c1.1-2,2.1-4,3-5.9,4.9-9.9,8-17.1,9.2-21.6a75.6,75.6,0,0,1,.1-8.2,26.9,26.9,0,0,1,.3-4c.6-9.4,1.6-19.1,3-29.3a373.4,373.4,0,0,1,7.6-37.9c3.4-13.6,7.1-23.6,11.1-30.1s11.7-12,23.4-16.4,18.4-14.4,20.2-29.8a77.4,77.4,0,0,0-1.6-27.6l-1.9-6.9a.8.8,0,0,0-.2-.4l-1.8-5.5-.6-1.7h0a4.3,4.3,0,0,0-.1-.5l-2.9-8.6-1.8-5.5c2.1-2.7,8.2-.5,18.5,6.6s15.9,10,17,9.3,4.3-1.6,9.3-2.7c2.8-3.7,5.4-7.5,7.9-11.5s4.6-6.3,6-7,3.2.8,5.5,4.3l.6.9c1.9,2.9,3,7.6,3.3,14.4a.2.2,0,0,1,.2.2c11.3,10.1,14.4,19.5,9.2,28.2s-9.8,13.8-14.2,15.2-5.7,7-4.1,17.2,3.2,17.3,5.1,21.3,3.6,9.6,4.6,17.2.5,19.9-1.9,36.7-3.9,28.2-4.8,33.9-2.4,12.1-4.2,19.4a24.3,24.3,0,0,0-.6,9.2,17.7,17.7,0,0,0,.8,4,19.9,19.9,0,0,0,3.1,5.7c4.1,5.3,4.7,8.8,1.8,10.4a18.9,18.9,0,0,1-10.4,2.1c-4.1-.3-9.9-4.3-17.3-12.1,3.2,6.5,5.4,10.8,6.5,12.7s-1.1,3.6-6.5,4.9-9.2.9-11.3-1.7a28.8,28.8,0,0,1-4.9-8.1c-1.1-2.9-3.8-4.4-8.3-4.8a29.5,29.5,0,0,1-4.2-.2h-1.1l.4.2a9.7,9.7,0,0,1,1.5,1.1c.3.1.5.2.5.5a6.2,6.2,0,0,1,1.3,3.7,9.8,9.8,0,0,1-1.2,5.7,11.7,11.7,0,0,1-3.7,4.3c-3.2,1.5-8,2.1-14.4,1.9l-15.8-.9c-4.2-.3-9-.7-14.4-1.4a7.5,7.5,0,0,1-2.6-.5ZM675.7,719.4c3.2-2.8,6.1-5,8.4-6.7s6.9-4.8,10.5-6.9a179.9,179.9,0,0,1,37.5-18c13.5-1.4,23.4.6,29.6,6a28.3,28.3,0,0,1,2.4,2.5c3.3,4.1,5,9.2,5,15.5a33.3,33.3,0,0,1-1.6,7,35.5,35.5,0,0,0-1.5,6.8l13.9,33.9h0c7-3.6,11.8-8.4,14.3-14.3q15.1-13.6,31.1-38.7c.7-1.2,1.4-2.4,2-3.6l12.4-20.8a13.8,13.8,0,0,1,1.4-2.4c3.9-6.4,7.3-11.6,10.2-15.8,7.4-9.9,21.1-19.1,41.3-27.5,11.3-4.6,19-8,23-10.2h.2a70.2,70.2,0,0,0,20.1-14.9,57.2,57.2,0,0,1,24.2-1c9.3,1.5,16.3,5.4,21.2,11.6a30.6,30.6,0,0,1,4.7,6.8,24.2,24.2,0,0,0-4.4,3.8c-6.5,6.2-15.9,15.9-28.4,29q-34.5,31.1-55.3,46.4t-83.8,52.4C800,768.6,789,775.5,781.3,781c-8.6-4.8-18.4-10-29.3-15.4l-8.2-5a31.6,31.6,0,0,0-9.3-3.7A315.5,315.5,0,0,1,675.7,719.4Zm163,49.5,2.2-1.3L865.1,753l7.8-4.9-2,1.5L869,751h-.1l-9.7,6.2c-4.9,2.7-9.2,5.3-13.1,7.9Z"></path><path class="b" d="M960.3,215.7l-9.4.3c-7.5.3-15.2.4-23.1.5H910.5q-51-.6-88.3-6.5c-25.5-4-39.2-9.1-41-15.1v-1a7.1,7.1,0,0,1,.4-2L809.9,17.8c.9-5,12.2-9.2,33.9-12.7,6.1-1,12.7-1.9,19.8-2.5C880.7.9,899.8,0,920.9,0q45,0,77.5,5.1c21.8,3.5,33.1,7.7,33.9,12.7L1060,191.6a11.2,11.2,0,0,1,1,1.6v1.3c-1.2,6-14.8,11.2-41,15.5A531.9,531.9,0,0,1,960.3,215.7Z"></path><path class="c" d="M511.8,1089.6l186.7-32.8v-27.5q76.7-.9,163.9-11.7,91.6-11.2,142.4-47.1l64.8,11.4q45.3,8,2.4,26.8t-149.4,37.6h-.2a2057.3,2057.3,0,0,1-213.9,26.2l-24.3,1.7-152.3,26.3-265.3-45.8,58.7-10.2V1057l186.5,32.9ZM325.3,985.3v46.4l-35.6-6.2q-45.6-8.1-2.6-27A318.3,318.3,0,0,1,325.3,985.3ZM608.1,364.6l.6,1.1q32.1,48,58.5,43.5a122.7,122.7,0,0,0,7.9-20.8l2.7-2.5a22,22,0,0,1,.2,6.3,55.2,55.2,0,0,1-2.1,16.5c-3.1,9.5-9.1,14.2-17.8,14.2-12.6,0-26-8.3-40.4-24.8a134,134,0,0,1-13.8-19.5l-2.3-4.3A58.7,58.7,0,0,0,608.1,364.6ZM588.4,565.2q0,10.9-.6,21.3a54.3,54.3,0,0,0-17.2,2.7c-2.9-16-5.9-32.1-8.8-48.2q-10.2-55.3-10.2-79.5,0-26.8,13.4-47c3.3-3.6,5.9-6.5,7.8-8.8a34.1,34.1,0,0,1,9.7,5.9,51,51,0,0,1,14.7,18.9,32.6,32.6,0,0,1,3,10,32.3,32.3,0,0,1,0,11.6c-1.8,7.9-6.5,14.1-14,18.5-1,11.6-1,27.3.1,47.3C587.9,541.4,588.6,557.2,588.4,565.2Z"></path><path class="d" d="M265.4,577.8l-1,3.1c-4.8-7.7-9.2-15-13.5-21.7q-55.1-87-102.7-123.8Q83.9,385.5,16.5,410.1c-1.9.7-5.6,2.3-11.3,4.9-1.2.7-2.9.5-5.1-.5v-4.6q106.8-89.5,229.6,13.3v58.6l35.9,6.4a38.5,38.5,0,0,0,2.5,4.2,18.4,18.4,0,0,0,15.3,7.4c6.7,0,11.6-1.9,14.8-5.8l3,3.6c-8.9,16.6-16.8,32.9-23.7,49.2a18.7,18.7,0,0,0-10.4,4.4c-4,3.5-6,8.1-6,13.9a21.3,21.3,0,0,0,4.3,12.6Zm474.4-86.2a46.4,46.4,0,0,0-6.8-16.8c-9.4-12.1-15.4-21.4-18.1-27.9l.6-5.3a27.3,27.3,0,0,0,.3-4.1l-.9-22.5a3.2,3.2,0,0,0-.3-1.4,2,2,0,0,0-.3-1.1,1.2,1.2,0,0,0-.3-.9,3.3,3.3,0,0,0-.3-1.5v-.7a5,5,0,0,0-.2-1.2,36,36,0,0,0-7.1-13.8,247.6,247.6,0,0,1,18.8-26.8q69.6-85.5,183.9-67.2-70.1,22.8-111.2,71.2-27,31.5-50.2,88.5C745.3,466,742.6,476.5,739.8,491.6Zm-12.2,67.6c-3.5-3.6-6.9-7.3-10.3-10.9-.3-2.9-.6-5.4-.9-7.6v-.3a16.9,16.9,0,0,1,.8-10.3l1.2-2.4a34.9,34.9,0,0,1,5.3-5.8.9.9,0,0,0,.6-.3,64.1,64.1,0,0,0,4.9-4.4l3.2-2.7a14.7,14.7,0,0,0,3.8-5.2h.3a.1.1,0,0,1,.1-.1,4.4,4.4,0,0,1-.2,1C733.1,530.4,730.1,546.8,727.6,559.2Zm-472.1-40c2.5,3.5,6.3,5.3,11.3,5.3s9.9-2.5,12.1-7.3,1.4-6.9,1.4-6.5a13.3,13.3,0,0,0-4.2-10.3,13.9,13.9,0,0,0-9.5-3.5,13.5,13.5,0,0,0-9.4,3.5,13.2,13.2,0,0,0-4.4,10.3A14.3,14.3,0,0,0,255.5,519.2Z"></path><path class="e" d="M280.1,382.5l-37.5,6.6Q153.2,272.4,36.9,192.4q140.9-7.3,254.2,120.7l-1.2.8a19.7,19.7,0,0,0-12.4-3.9,19.3,19.3,0,0,0-13.2,4.7c-4.1,3.4-6.1,8-6.1,13.9a20.2,20.2,0,0,0,4.2,12.4c3.5,5,8.5,7.5,15.2,7.5s10.8-1.6,14.1-4.8l1.2,10.7a17.4,17.4,0,0,0-9.3,4.3c-4,3.4-6,8.1-6,13.9A19.7,19.7,0,0,0,280.1,382.5ZM495.5,769.2v-.3q0-.7,1.2-1.5c1.4-1,4.2-1.8,8.4-2.5a84.1,84.1,0,0,1,10.8-1.3l1.6,1.8-5,.5c-4.5,1-6.9,2-7.1,3s1.6,1.7,4.1,2.3l3,.6a71.9,71.9,0,0,0,16,1.4,124.6,124.6,0,0,0,14.2-.8l6.6-1.5c1.6-.4,2.4-1.1,2.4-2s-2.2-1.9-6.7-2.7l-3.8-.5q0-.2.3-.3a20.9,20.9,0,0,0,1.4-1.7,65.1,65.1,0,0,1,9.4,1.2c6.5,1.1,9.7,2.5,9.7,4.3v.6q-.7,1.2-5.1,2.4l-1.9.5-2.7.5-5.1.7a167.7,167.7,0,0,1-18.4.9,136.2,136.2,0,0,1-23.7-1.8l-2.5-.6a30.5,30.5,0,0,1-4.1-1.2C496.8,770.5,495.7,769.9,495.5,769.2Z"></path><path class="f" d="M242.6,389.1l37.5-6.6a26.3,26.3,0,0,0,1.6,2.6,17.5,17.5,0,0,0,8.1,6.4c-.7.6-1.1,1.1-1.1,1.7v.7c.6,1.1,2.6,2.1,6.1,3.1a13.1,13.1,0,0,0-4.1,5l-31.1-5.4-1.9-2.1a18.8,18.8,0,0,0-13.2-4.8,18.6,18.6,0,0,0-9.8,2.5l-4.8-.8Z"></path><path class="f" d="M380.5,388.3c-3,2.4-5.8,5-8.6,7.6h-.1l-1.1-.6c1.4-.7,2.2-1.3,2.4-2.1v-.3c0-1.6-2.7-3.1-8-4.4l.3-2.8Z"></path><path class="b" d="M601.8,234.4a79.5,79.5,0,0,0-14,23.5,24.9,24.9,0,0,1-3.1-2.7,28,28,0,0,1-8.2-20.2,14.8,14.8,0,0,1,.1-2.2,28.3,28.3,0,0,1,27.9-26.2,29.4,29.4,0,0,1,7.4,1,26.4,26.4,0,0,1,12.5,7.4,29.9,29.9,0,0,1,2.4,2.8,73.5,73.5,0,0,0-9.7,4.9,108.8,108.8,0,0,0-13.8,10l-.6.6Z"></path><path class="e" d="M714.9,446.9c2.7,6.5,8.7,15.8,18.1,27.9a46.4,46.4,0,0,1,6.8,16.8v.6a19.8,19.8,0,0,1-14.2,6,43.4,43.4,0,0,1-10.9-2.1c-4.7-1.6-11-2.3-18.7-2.3a37.1,37.1,0,0,0-19.3,5.6,48.9,48.9,0,0,0-8.2,6c-8.9,7.7-18,11.5-27.6,11.5a20.7,20.7,0,0,1-5-.6c-6.3-1.5-11.6-5.7-15.7-12.8s-5.3-10.9-5.3-14.3c1.9-13.3,2.9-21,2.9-22.9a80,80,0,0,0-5.4-29.9,76.6,76.6,0,0,0-20.9-29.1l-6.4-5.1a92.2,92.2,0,0,0-11.8-7.1l3.9-2.3,5.4-3.2,6.5-4.2a54.2,54.2,0,0,0,9.9-8,20,20,0,0,0,2.7-3.1l2.3,4.3a134,134,0,0,0,13.8,19.5c14.4,16.5,27.8,24.8,40.4,24.8,8.7,0,14.7-4.7,17.8-14.2a55.2,55.2,0,0,0,2.1-16.5,22,22,0,0,0-.2-6.3l2.9-2.7,6.1,1.9,3.5,4.8a109.3,109.3,0,0,1,9.4,15.9c1.5,2.8,2.8,5.8,4.1,8.9l7,19.1a24.6,24.6,0,0,1,.9,3.4A92,92,0,0,1,714.9,446.9Z"></path><path class="e" d="M710.8,565.2a52.3,52.3,0,0,0-.6,26.1,63.9,63.9,0,0,0,11.1,24.1,56.5,56.5,0,0,1-26,9.6q-15.9,1.8-35.1-4.2c-3.8-1.1-9.8-3.4-18.2-6.7-2.7-8.2-4-15.5-4-21.7,0-14.7,3.1-26.8,9.4-36.2s14.1-15.3,25.1-19.7c7.2-2.8,17-4.7,29.5-5.6,4.7-.4,9.7-.7,15.2-.8a16.9,16.9,0,0,0-.8,10.3v.3c-.4,1.7-.9,3.4-1.3,5.1-1.9,7.8-3.3,13.7-4,17.7A4.7,4.7,0,0,0,710.8,565.2Z"></path><path class="f" d="M332.7,402.8l-7.1,1.2a15.1,15.1,0,0,0-2.6-3.8h9.8c0,.8-.1,1.6-.1,2.4Z"></path><path class="f" d="M340.5,858.6l-15.3-2.7,18.3-3.2C342.6,854.6,341.6,856.6,340.5,858.6Z"></path><path class="f" d="M697.6,856.1,511.8,888.8l-75.4-13.2h0l-74.9-13.3c1-1.2,2.1-2.3,3.2-3.5a10.9,10.9,0,0,0,2.6.5c5.4.7,10.2,1.1,14.4,1.4l15.8.9c6.4.2,11.2-.5,14.4-1.9a11.2,11.2,0,0,0,3.7-4.4,9.5,9.5,0,0,0,1.2-5.7,5.7,5.7,0,0,0-1.3-3.6.5.5,0,0,0-.5-.5,5.8,5.8,0,0,0-1.5-1.1l-.4-.2h1.1l4.2.2c4.5.3,7.2,1.9,8.3,4.7a28.3,28.3,0,0,0,4.9,8.1c2.1,2.7,5.9,3.2,11.3,1.8s7.5-3,6.5-4.9-3.3-6.2-6.5-12.8c7.4,7.9,13.2,11.9,17.3,12.2a18.9,18.9,0,0,0,10.4-2.1q4.3-2.4-1.8-10.5a18.2,18.2,0,0,1-3.1-5.6,17.7,17.7,0,0,1-.8-4l30.6-5.5v20.2c-9,1.6-13.6,3.6-13.6,5.8v.5c.6,1.6,3.9,3.1,10,4.5l3.7.7a191.1,191.1,0,0,0,33.6,2.6,223.1,223.1,0,0,0,33.2-2.1l3.8-.9c5.8-1.3,9.1-2.7,10-4.1v-.7q0-3.9-13.8-6.3H562V834h7.1a28.2,28.2,0,0,0,4.2-.2l125.1,22.1Z"></path><path class="g" d="M371.9,395.9h0Zm-25.8,29c-2.3,2.9-4.4,5.9-6.4,9s-2.2,3.1-3.2,4.7c-5.3,8-10.3,15.9-15.2,23.7a17.1,17.1,0,0,0-6.5-1.2h-1.2V430.6a15.4,15.4,0,0,0,11.6-8.8,19.6,19.6,0,0,0,1.9-6.9,16.2,16.2,0,0,0,.2-3.4,15.9,15.9,0,0,0-1.7-7.5l7.1-1.2a20.9,20.9,0,0,0,4.1,12.4,18,18,0,0,0,6.6,5.7l1.5,2.5A4.4,4.4,0,0,0,346.1,424.9ZM511.8,888.8l185.8-32.7.9-.2v200.9l-186.7,32.8V888.9Z"></path><path class="b" d="M325.3,1031.7v-101a24,24,0,0,0,15.9,14.5,29.8,29.8,0,0,0,8.8,1.7,24.2,24.2,0,0,0,15.4-3.3c5.4-3.5,8.1-8.3,8.2-14.4s-2.7-7.6-8-7.2a6.7,6.7,0,0,0-4,1.5,16.4,16.4,0,0,0-4.9,6.1c-2.2,3.8-5.6,4.6-10.2,2.3s-6.8-5.8-6.9-10.9.9-11.3,2.9-18.6,4.3-14.2,6.7-20.4a64.1,64.1,0,0,1,5.6-11.1,13,13,0,0,1,1-1.5,78.9,78.9,0,0,1,5.7-7l75.1,13.3,75.2,13.2v201L325.3,1057v-25.3Z"></path><path class="b" d="M300.2,470.8a16.5,16.5,0,0,0-4-4.8,19.1,19.1,0,0,0-13.3-4.8,19.9,19.9,0,0,0-13.2,4.7c-4,3.5-6,8.1-6,14a20.4,20.4,0,0,0,1.8,8.3l-35.9-6.4V420.9c3.6,5,8.6,7.5,15.1,7.5,8.4,0,14.1-3.2,17.1-9.4a23.5,23.5,0,0,0,1.7-6.7,32.1,32.1,0,0,0,.2-3.6,18.3,18.3,0,0,0-4.1-12.1l31.1,5.4a20.1,20.1,0,0,0-2,9.2c0,.4.1.8.1,1.3a14.5,14.5,0,0,0-2.9-.4,12.3,12.3,0,0,0-9.4,3.1c-2.9,2.6-4.3,6.3-4.3,11.2a17.8,17.8,0,0,0,2.6,9.6c2.5,3.9,6.2,5.9,11.3,5.9s10-2.5,12-7.4a19.8,19.8,0,0,0,1.4-5.2,19.7,19.7,0,0,0,8.6,1.8,23.9,23.9,0,0,0,5.5-.5v30.6a15.2,15.2,0,0,0-9.3,3.5A11,11,0,0,0,300.2,470.8Z"></path><path class="b" d="M302.2,483.1c0,.1,0,.2.1.2a12.1,12.1,0,0,0,4.4,4l-4.1,7.3-4.4-.7a14.5,14.5,0,0,0,2.2-3.6,24.5,24.5,0,0,0,1.7-6.6A1.3,1.3,0,0,1,302.2,483.1Z"></path><path class="b" d="M229.9,391.4l4.8.8a17.7,17.7,0,0,0-3.2,2.1,17,17,0,0,0-1.9,1.9v-4.9Z"></path><path class="h" d="M572.8,405.7a28,28,0,0,0-9.2-3.2,3.8,3.8,0,0,0-1.5-.9l7-4.1a39.7,39.7,0,0,0,3.7-2.4h.4a92.2,92.2,0,0,1,11.8,7.1l6.4,5.1a76.6,76.6,0,0,1,20.9,29.1,80,80,0,0,1,5.4,29.9c0,1.9-1,9.6-2.9,22.9,0,3.4,1.7,8.2,5.3,14.3s9.4,11.3,15.7,12.8a20.7,20.7,0,0,0,5,.6c9.6,0,18.7-3.8,27.6-11.5a48.9,48.9,0,0,1,8.2-6,37.1,37.1,0,0,1,19.3-5.6c7.7,0,14,.7,18.7,2.3a43.4,43.4,0,0,0,10.9,2.1,19.8,19.8,0,0,0,14.2-6V492a24.1,24.1,0,0,1-1.5,12.5,1.2,1.2,0,0,1-.3.9.3.3,0,0,1-.3.3,11,11,0,0,1-1.1,3.5.1.1,0,0,0-.1.1h-.3a14.7,14.7,0,0,1-3.8,5.2l-3.2,2.7a64.1,64.1,0,0,1-4.9,4.4.9.9,0,0,1-.6.3,34.9,34.9,0,0,0-5.3,5.8l-1.2,2.4c-5.5.1-10.5.4-15.2.8-12.5.9-22.3,2.8-29.5,5.6-11,4.4-19.3,10.9-25.1,19.7s-9.4,21.5-9.4,36.2c0,6.2,1.3,13.5,4,21.7l-3.7-1.5-8.8-3.5-2.7-.8c-11.7-4.8-21-7.9-27.8-9.4a146.2,146.2,0,0,0-10.6-33.7c.2-8-.5-23.8-2.1-47.3-1.1-20-1.1-35.7-.1-47.3,7.5-4.4,12.2-10.6,14-18.5a32.3,32.3,0,0,0,0-11.6,32.6,32.6,0,0,0-3-10,51,51,0,0,0-14.7-18.9A34.1,34.1,0,0,0,572.8,405.7Z"></path><path class="b" d="M302.5,393.5a15.5,15.5,0,0,0-7.7,3.5c-3.5-1-5.5-2-6.1-3.1v-.7c0-.6.4-1.1,1.1-1.7a22.4,22.4,0,0,0,7,1h2.3A17,17,0,0,0,302.5,393.5Z"></path><path class="b" d="M332.8,400.3H323l-1.7-1.5a24.5,24.5,0,0,0-4.4-3c4.2.3,8.8.4,13.8.4h.5a10.1,10.1,0,0,0,2.3,1.2A22.1,22.1,0,0,0,332.8,400.3Z"></path><path class="b" d="M365.1,388.5c5.3,1.3,8,2.8,8,4.4v.3c-.2.8-1,1.4-2.4,2.1l-1-.7a16.8,16.8,0,0,0-4.4-5.6l-.3-.2Z"></path><path class="b" d="M325.3,893.5V856l15.1,2.7c-.5,1.3-1.2,2.6-1.9,4s-2.9,5.5-4.1,8.2-2.6,5.4-3.7,7.9C328.4,884.2,326.7,889.1,325.3,893.5Z"></path><path class="i" d="M781.3,781.1l15.3,8.8q26.9,16.4,34.5,27.3a190.1,190.1,0,0,0,46.3,4.4c9.8.2,20.9-.1,33.1-.9,5.5-.3,11.3-.7,17.3-1.3,14.2-1.2,29.8-3.1,46.8-5.5q60-8.2,67-62.6c7.5,5.5,12.7,13.6,15.4,24.3q11.4,43.5,9.7,79.3-213.3,68.6-368.2,75.2V855.9l-.9.2.8-.2L573.3,833.8c11.8-1.2,17.8-8.2,18.1-20.8V794.6c0-15-7.5-22.4-22.3-22.4H562v-3c0-1.8-3.2-3.2-9.7-4.3a65.1,65.1,0,0,0-9.4-1.2,16.4,16.4,0,0,0,3.5-10.3c-.1-7.2,1.8-13,5.7-17.6l1.1-.4a78.6,78.6,0,0,0,21.5-13.2,49.2,49.2,0,0,0,15.4-23.8h0c4.7-15.2,4-27.9-1.9-38.1a35.4,35.4,0,0,0-3.6-5.3c-6.4-8.3-12.3-14.3-17.8-18.1l-1.2-.8h-.1c-3.4-2.4-8.5-5.6-15.2-9.7l-8.9-5.3a17.6,17.6,0,0,1-9.2-15.2c.1-6.2,3.5-11.1,10.1-14.8h.1l4-2.4c3.1-1.9,6-3.8,8.8-5.8H503.5c-.7,1.3-1.3,2.5-1.8,3.7a43.3,43.3,0,0,0-3.3,21.1q1.4,28.2,25.8,42.6c10.4,6.1,17.9,10.7,22.3,13.8h.2c3.3,2.4,7,6.3,11,11.7,1.7,3.2,1.8,7.5.1,12.7s-8,11.6-16.3,15.5a27.3,27.3,0,0,0-13.7,8.6c-10.2,10.5-15.3,24.3-15.2,41.3a16,16,0,0,0,3.3,10,84.1,84.1,0,0,0-10.8,1.3c-4.2.7-7,1.5-8.4,2.5s-1.2,1-1.2,1.5v57l-30.6,5.5a24.3,24.3,0,0,1,.6-9.2c1.8-7.4,3.2-13.9,4.2-19.4s2.5-17,4.8-33.9,3-29.1,1.9-36.7-2.6-13.4-4.6-17.3-3.6-11-5.1-21.2-.2-16,4.1-17.3,9.1-6.4,14.2-15.2,2.1-18-9.2-28.2l-.2-.2c-.3-6.7-1.4-11.5-3.3-14.3l-.6-1c-2.3-3.5-4.2-4.9-5.5-4.2s-3.4,3-6,7-5.1,7.8-7.9,11.4c-5,1.2-8.1,2.1-9.3,2.8s-6.8-2.5-17-9.4-16.4-9.2-18.5-6.5q.9,2.9,1.8,5.4l2.9,8.6c0,.2.1.3.1.5h0a18.9,18.9,0,0,0,.6,1.8q1.1,3,1.8,5.4c.1.2.2.3.2.5l1.9,6.8a78.1,78.1,0,0,1,1.6,27.7c-1.8,15.4-8.6,25.4-20.2,29.8s-19.5,9.8-23.4,16.3-7.7,16.6-11.1,30.1a384.7,384.7,0,0,0-7.6,37.9c-1.3,10.2-2.4,20-3,29.3q-109.5-81-110.9-130.5a405.8,405.8,0,0,1,19.4-99.1l4.3-5.7,2-2.8a18,18,0,0,0,12.4,4.5c8.3,0,14-3.2,17.1-9.5a20.9,20.9,0,0,0,2-6.7c.1-1.1.2-2.2.2-3.5a20.2,20.2,0,0,0-.3-3.6,20.1,20.1,0,0,0,7.4,1.2c6.7,0,11.2-2.5,13.6-7.3.9-4.7,1.3-6.9,1.3-6.6a12.7,12.7,0,0,0-4.7-10.2,16.9,16.9,0,0,0-16.8-2.2l15.3-20.7,5.1-6.9.7-.7c3.4-4,9.5-9.5,18.3-16.6s18.7-14.7,31.6-24.1l26.5-19q22.2-16.1,55.6-39.9c12.8-9.3,24.4-18,34.8-25.9-7.3,10.4-11.8,25.3-13.6,44.7q34.4,76.1,70.8,135.9c6,9.8,12.1,19.4,18.3,28.6,4,6,8,12,12.2,17.8,6.5,9.2,13.1,18.1,19.7,26.7l5,6.3c4.3,5.4,8.7,10.7,13.1,15.9,8.7,10,17.5,19.6,26.3,28.5a439.7,439.7,0,0,0,35.9,32.2,326.1,326.1,0,0,0,58.8,37.5l1.2.6,16.3,8C762.9,771.2,772.7,776.3,781.3,781.1ZM762.1,592.7c-6.6-3.3-14.5-7.3-23.8-12.3a18.8,18.8,0,0,0-6.5-2.9c-1.5-.4-3.8-.9-6.9-1.4-4.9-1.6-7.1-5.1-6.5-10.6V564c-.3-5.9-.6-11.2-1.1-15.7,3.4,3.6,6.8,7.3,10.3,10.9C738.7,570.8,750.2,581.9,762.1,592.7ZM507.5,367.4c6.8-5.7,13-10.9,18.4-15.8a90.7,90.7,0,0,0,18.3,8.7q24,8.3,35.7.3c-.2-.6-.4-1-.6-1.5a96.5,96.5,0,0,1,19.6,18.3,54.2,54.2,0,0,1-9.9,8l-6.5,4.2-5.4,3.2a132.1,132.1,0,0,0-25-17.9C534.7,365.4,519.9,362.9,507.5,367.4ZM290.9,549.3l.5-.8v1.2Zm-12,52.1a15.6,15.6,0,0,0-10.5,3.6c-3.2,2.6-4.7,6.2-4.7,10.6a12.3,12.3,0,0,0,3.1,8.1c2.8,3.7,6.8,5.5,12.2,5.5s11.4-2.5,13.8-7.5c.9-4.6,1.4-6.6,1.4-6.1a13,13,0,0,0-4.8-10.6A15.9,15.9,0,0,0,278.9,601.4ZM562,820.5V785.7h7.1c5.8,0,8.8,2.9,8.8,8.9v17.9c-.3,5.4-3.2,8-8.8,8Zm-50.2,68.4-75.2-13.2h-.2l75.4,13.2Z"></path><path class="j" d="M803.1,786.5c10.2-.4,20.5-.7,30.8-.9l17.4,3.9q22.8,4.9,37.8,1.8a38.3,38.3,0,0,0,20.5-10.8l2.8-3,11.6-3.3,3.8-1.2c24.9-9.1,32.6-28.4,23.2-58.2l90.6,36.5q-7,54.3-67,62.6c-17,2.4-32.6,4.3-46.8,5.5-6,.6-11.8,1-17.3,1.3-12.2.8-23.3,1.1-33.1.9a190.1,190.1,0,0,1-46.3-4.4q-7.6-11-34.5-27.3ZM264.4,580.9l1-3.1,2.5,2.9-2,2.8-4.3,5.7C262.5,586.4,263.4,583.7,264.4,580.9ZM525.9,351.6c-5.4,4.9-11.6,10.1-18.4,15.8h-.1l-2.4.9-6.4,3.6-.7.5-3,2.5c-.2,0-.3.1-.3.2l-5.7,6.6a2.8,2.8,0,0,0-.8,1.1H488c-10.4,7.9-22,16.6-34.8,25.9q-33.4,23.9-55.6,39.9l-26.5,19c-12.9,9.4-23.4,17.5-31.6,24.1s-14.9,12.6-18.3,16.6l-.7.7-5.1,6.9-15.3,20.7a13.6,13.6,0,0,0-3.9,2.2,12.3,12.3,0,0,0-4.8,9.5l-.5.8a20.5,20.5,0,0,0-10.7-2.7,13.2,13.2,0,0,0-2.8.2c6.9-16.3,14.8-32.6,23.7-49.2.4-1,1-2,1.5-3l4.1-7.3a17.1,17.1,0,0,0,8.2,1.8q10.2,0,13.8-7.8c.9-4.7,1.4-6.7,1.4-6.2a12.3,12.3,0,0,0-4.9-10.4,14.1,14.1,0,0,0-3.9-2.4c4.9-7.8,9.9-15.7,15.2-23.7,1-1.6,2.1-3.1,3.2-4.7s4.1-6.1,6.4-9c3.5,4.2,8.2,6.2,14.1,6.2,8.5,0,14.3-3.1,17.2-9.3a19.5,19.5,0,0,0,1.8-6.9,16.2,16.2,0,0,0,.2-3.4c0-6-2-10.7-5.9-14.2a10.9,10.9,0,0,0-1.7-1.3h.1c2.8-2.6,5.6-5.2,8.6-7.6,34-28.2,76.1-43.8,126.3-47.1l5.3-.3A94.4,94.4,0,0,0,525.9,351.6Z"></path><path class="k" d="M951,714.8c9.4,29.8,1.7,49.1-23.2,58.2l-3.8,1.2-11.6,3.3a49.4,49.4,0,0,0,2.7-4.2L917,769l1-4.5a26.9,26.9,0,0,0,.1-4.9c-.8-6.2-4.6-11.1-11.1-14.6-1.2-.6-7.2-3-18.1-7q38.9-29.2,39.1-29.6l3.7-2.5Zm53.8,255.7q-50.7,35.8-142.4,47.1-87.1,10.8-163.9,11.7V930.1q154.8-6.6,368.2-75.2-3,69.1-54.5,110ZM242.2,688.3q1.4,49.4,110.9,130.5a29.3,29.3,0,0,0-.3,4.1,75.6,75.6,0,0,0-.1,8.2c-1.2,4.4-4.3,11.7-9.2,21.6l-18.3,3.2,15.3,2.7h-.1L325.3,856v37.5a84,84,0,0,0-2,9.7c-1.4,9.7-1,18,1.3,25q-56.9-55.5-75.7-144.1c-1-4.9-1.9-9.9-2.8-14.8A342.1,342.1,0,0,1,242.2,688.3Zm303-124.7q-36.5-59.8-70.8-135.9c1.8-19.4,6.3-34.3,13.6-44.7h.1a2.8,2.8,0,0,1,.8-1.1l5.7-6.6c0-.1.1-.2.3-.2l3-2.5.7-.5,6.4-3.6,2.4-.9h.1c12.4-4.5,27.2-2,44.6,7.5a132.1,132.1,0,0,1,25,17.9l-3.9,2.3h-.4a39.7,39.7,0,0,1-3.7,2.4l-7,4.1-.9.6c-12.6,3.5-21.1,12.2-25.5,26q-5.2,17.6-.6,38.7a639.3,639.3,0,0,1,8.8,70.5ZM599,598.9c-4.4.6-7.5-.3-9.4-2.7a3.1,3.1,0,0,1-.9-1.1c-1.2-2.2-1.5-5.1-.9-8.6q.6-10.3.6-21.3A146.2,146.2,0,0,1,599,598.9ZM436.6,875.7l-75.1-13.3h0l74.9,13.3h.2Zm376.9-94.1c2.4.2,9.2,1.5,20.4,4-10.3.2-20.6.5-30.8.9A95.9,95.9,0,0,1,813.5,781.6Z"></path><path class="l" d="M576.6,232.8q-46.5,4.5-68.7,49.1-6.1,12.3-12.6,34.5c-.8-2.1-1.4-4.3-2-6.4l-2.4-22.4c0-3.8.1-7.9.3-12.5.2-2.3.4-4.8.6-7.4q4.6-44.4,70.6-65.5l7.9-.6q7.8,0,15.6.3c10.6.9,19.2,2.8,26,5.7a29.4,29.4,0,0,0-7.4-1,28.3,28.3,0,0,0-27.9,26.2Zm160.8,56.9q-33.9-26.8-64.1-48.2-22.2-15.9-39.5-26.5a91.5,91.5,0,0,1,19.4-4.3c20.4-2.3,38.2,2,53.2,12.9,7.6,6.8,14.8,15.8,21.7,27.1S738,275,737.4,289.7ZM587.8,257.9a79.5,79.5,0,0,1,14-23.5,45.3,45.3,0,0,1,5.4,4.7c6.5,6.1,12,11.7,16.6,16.8,10.4,11.5,15.6,20,15.6,25.4,0,12.3-6.7,20-20.2,23.1-5.7,1.3-17.1,2.5-34.2,3.5-.4-2.9-1.1-7.6-2.2-14s0-15.5,2.5-27a16.7,16.7,0,0,1,.8-3A45,45,0,0,1,587.8,257.9Zm36.6,79.3a42,42,0,0,1-3.8,2.4C621.2,338.6,622.5,337.8,624.4,337.2Z"></path><path class="m" d="M587.8,257.9a45,45,0,0,0-1.7,6q-26.6,44.4-6.8,95.2c.2.5.4.9.6,1.5q-11.7,7.9-35.7-.3a90.7,90.7,0,0,1-18.3-8.7,94.4,94.4,0,0,1-13.8-10.7,84.4,84.4,0,0,1-8.2-8.7c-5-5.8-8.5-13.2-10.6-22.2.6,2.1,1.2,4.3,2,6.4q6.4-22.2,12.6-34.5,22.2-44.5,68.7-49.1a14.8,14.8,0,0,0-.1,2.2,28,28,0,0,0,8.2,20.2A24.9,24.9,0,0,0,587.8,257.9Zm46-42.9q17.3,10.6,39.5,26.5,30.2,21.3,64.1,48.2c-.4,11.5-4.4,20.6-12,27.4a4.1,4.1,0,0,1-2.1,1c-2-6.4-6.4-10.7-13.2-12.8a83.5,83.5,0,0,1-40.3-25.8L668,285a79.4,79.4,0,0,1-7.2,15.6,137,137,0,0,1-9.7,13.5,143.2,143.2,0,0,1-26.7,23.1c-1.9.6-3.2,1.4-3.8,2.4a24.3,24.3,0,0,0-5.6,2q-2.2,1.3-7.5,1.5c-7.9-2.4-12.1-4.7-12.8-7.1-5.9-11.5-9.1-20.9-9.7-28.1,17.1-1,28.5-2.2,34.2-3.5,13.5-3.1,20.2-10.8,20.2-23.1,0-5.4-5.2-13.9-15.6-25.4-4.6-5.1-10.1-10.7-16.6-16.8a45.3,45.3,0,0,0-5.4-4.7l.9-1.1.6-.6a108.8,108.8,0,0,1,13.8-10,73.5,73.5,0,0,1,9.7-4.9C629,216.8,631.4,215.9,633.8,215Z"></path><path class="n" d="M989.3,636.6a31.4,31.4,0,0,0-3.3-7.7,28.5,28.5,0,0,0-4.7-6.8c-4.9-6.3-11.9-10.2-21.2-11.7a57.3,57.3,0,0,0-24.2,1.1c-5.2,5.7-11.9,10.6-20.1,14.9l.3-.2a93.8,93.8,0,0,0,11.7-7.4,64.2,64.2,0,0,0,8.1-7.4,57.7,57.7,0,0,1,24.3-1.1c9.2,1.5,16.2,5.4,21.1,11.7A32.9,32.9,0,0,1,989.3,636.6Zm-.7,20.3v-.6l.6-1.6ZM827.3,703.2a39.7,39.7,0,0,1-2,3.5q-15.9,25-31.1,38.7h0c10.1-9.1,20.5-21.9,31.1-38.7Z"></path><path class="o" d="M719,328.1a412.2,412.2,0,0,1-48.8-21.9c-3.2-1.8-6.4-3.7-9.4-5.6A79.4,79.4,0,0,0,668,285l1.8-5.5a83.5,83.5,0,0,0,40.3,25.8c6.8,2.1,11.2,6.4,13.2,12.8Zm-43.9,60.3a122.7,122.7,0,0,1-7.9,20.8q-26.4,4.5-58.5-43.5l-.6-1.1a3.3,3.3,0,0,1-.3-2.5c.1-1.2,0-7.5-.3-19q5.3-.2,7.5-1.5a24.3,24.3,0,0,1,5.6-2A81.3,81.3,0,0,0,642,370.5,73.9,73.9,0,0,0,675.1,388.4ZM575.7,610c-4.2-5.8-8.2-11.8-12.2-17.8l.6-.4,1.2-.5a48.7,48.7,0,0,1,5.3-2.1,54.3,54.3,0,0,1,17.2-2.7c-.6,3.5-.3,6.4.9,8.6l-3.7,3.8A71,71,0,0,0,575.7,610Zm24.7,33-5-6.3c3.8,2.7,7.1,5.2,9.7,7.3l-2.7-.6Z"></path><path class="p" d="M680.7,383.2l-2.9,2.7-2.7,2.5A73.9,73.9,0,0,1,642,370.5a81.3,81.3,0,0,1-21.4-30.9,42,42,0,0,0,3.8-2.4,143.2,143.2,0,0,0,26.7-23.1,137,137,0,0,0,9.7-13.5c3,1.9,6.2,3.8,9.4,5.6A412.2,412.2,0,0,0,719,328.1C708.8,350.9,696.1,369.3,680.7,383.2ZM642,614.1c8.4,3.3,14.4,5.6,18.2,6.7q19.2,6,35.1,4.2a56.5,56.5,0,0,0,26-9.6c12.9-.9,22.6-1.1,29.1-.7s11.5,2.2,15.3,5c-.5,2.4.6,3.3,3.4,2.8h.1l.2.2c-.5,1.3-.4,2.2.1,2.7a20,20,0,0,0-7.9,3.8l-15.5,12c-5.1,2.3-13.8,5.2-25.9,8.9l-2.7.8c-11.3,3.1-21,4.2-29,3.2-10.7-3.2-24.9-5.5-42.7-7-10.4-.8-18.9-1.3-25.7-1.7l-15-1.4c-2.6-2.1-5.9-4.6-9.7-7.3-6.6-8.6-13.2-17.5-19.7-26.7a71,71,0,0,1,9.3-11.1l3.7-3.8a3.1,3.1,0,0,0,.9,1.1c1.9,2.4,5,3.3,9.4,2.7,6.8,1.5,16.1,4.6,27.8,9.4l2.7.8,8.8,3.5Z"></path><path class="q" d="M561.2,402.2l.9-.6a3.8,3.8,0,0,1,1.5.9A9.9,9.9,0,0,0,561.2,402.2Z"></path><path class="r" d="M706.4,394.4a36,36,0,0,1,7.1,13.8,5,5,0,0,1,.2,1.2v.7a3.3,3.3,0,0,1,.3,1.5,1.2,1.2,0,0,1,.3.9,2,2,0,0,1,.3,1.1,3.2,3.2,0,0,1,.3,1.4l.9,22.5a27.3,27.3,0,0,1-.3,4.1l-.6,5.3a92,92,0,0,0-3.2-9.7,24.6,24.6,0,0,0-.9-3.4l-7-19.1c-1.3-3.1-2.6-6.1-4.1-8.9a109.3,109.3,0,0,0-9.4-15.9l-3.5-4.8a12.1,12.1,0,0,1,3.8.6A26.7,26.7,0,0,1,706.4,394.4Zm10.9,153.9c.5,4.5.8,9.8,1.1,15.7v1.5l-7.6-.3a4.7,4.7,0,0,1,.3-1.7c.7-4,2.1-9.9,4-17.7.4-1.7.9-3.4,1.3-5.1C716.7,542.9,717,545.4,717.3,548.3ZM563.5,592.2c-6.2-9.2-12.3-18.8-18.3-28.6l-1.3-26.2a639.3,639.3,0,0,0-8.8-70.5q-4.6-21.1.6-38.7c4.4-13.8,12.9-22.5,25.5-26a9.9,9.9,0,0,1,2.4.3,28,28,0,0,1,9.2,3.2c-1.9,2.3-4.5,5.2-7.8,8.8q-13.3,20.1-13.4,47,0,24.2,10.2,79.5c2.9,16.1,5.9,32.2,8.8,48.2a48.7,48.7,0,0,0-5.3,2.1l-1.2.5Z"></path><path class="s" d="M989.2,654.7l-.6,1.6a.9.9,0,0,1-.3.6l.3.3a40.4,40.4,0,0,1-19.1,25,422.7,422.7,0,0,0-37.8,23.7l-3.7,2.5q-.3.3-39.1,29.6h-.1l-11.7,7.7a32.7,32.7,0,0,1-3.6,2.3l-.4.3h-.2l-7.8,4.9-24.2,14.5-2.2,1.4c-10,4.9-16.2,8.2-18.7,9.7h-.1l-6.4,2.8a95.9,95.9,0,0,0-10.4,4.9l-6.5,3.4-15.3-8.8c7.7-5.4,18.7-12.3,32.8-20.6q62.1-35.8,83.8-52.4t55.3-46.5c12.5-13,21.9-22.7,28.4-29a27.9,27.9,0,0,1,4.4-3.7,31.4,31.4,0,0,1,3.3,7.7l.9,8.6-.7,8.2a2,2,0,0,0-.3,1.1Zm-375.7,4.2c-4.4-5.2-8.8-10.5-13.1-15.9l2,.4,2.7.6,15,1.4c-1,2-2.5,4.7-4.5,8A44.8,44.8,0,0,0,613.5,658.9ZM541.2,765.7l3.8.5c4.5.8,6.7,1.7,6.7,2.7s-.8,1.6-2.4,2l-6.6,1.5a124.6,124.6,0,0,1-14.2.8,71.9,71.9,0,0,1-16-1.4l-3-.6c-2.5-.6-3.9-1.4-4.1-2.3s2.6-2,7.1-3l5-.5h.2a16.4,16.4,0,0,0,11.8,4.9A17.3,17.3,0,0,0,541.2,765.7Zm32.1,68.1a28.2,28.2,0,0,1-4.2.2H562V820.5h7.1c5.6,0,8.5-2.6,8.8-8V794.6c0-6-3-8.9-8.8-8.9H562V772.2h7.1c14.8,0,22.3,7.4,22.3,22.4V813C591.1,825.6,585.1,832.6,573.3,833.8ZM675.7,719.6a439.7,439.7,0,0,1-35.9-32.2l35.8-19.7,5.3-2.3A148,148,0,0,1,729.8,654h8.7q6.3.3,12.3.9l13.3,1.8c11.5,4.4,20.2,12.7,26,25a66.5,66.5,0,0,1,2.8,6.9c.4,1.2.7,2.5,1.1,3.8l1.2,11.4L793.4,716a18.9,18.9,0,0,1-.6,1.8,7.1,7.1,0,0,0-.6,2.2l-.8,6.9a24.3,24.3,0,0,0,.2,4.6,2.4,2.4,0,0,1,.3,1.1l2.3,12.7h0c-2.5,6-7.3,10.8-14.3,14.3h0L766,725.8a34,34,0,0,1,1.5-6.8,33.3,33.3,0,0,0,1.6-7c0-6.3-1.7-11.4-5-15.5a19,19,0,0,0-2.4-2.5c-6.2-5.4-16-7.4-29.6-6a179.9,179.9,0,0,0-37.5,18q-5.2,3.2-10.5,6.9C681.8,714.6,678.9,716.8,675.7,719.6Z"></path><path class="t" d="M935.9,611.4a64.2,64.2,0,0,1-8.1,7.4,93.8,93.8,0,0,1-11.7,7.4l18.5-14.5Zm-143,77.1,48.2-8.5a13.8,13.8,0,0,0-1.4,2.4l-12.4,20.8-2,3.4c-10.6,16.8-21,29.6-31.1,38.7l-2.3-12.7a2.4,2.4,0,0,0-.3-1.1,24.3,24.3,0,0,1-.2-4.6l.8-6.9a7.1,7.1,0,0,1,.6-2.2,18.9,18.9,0,0,0,.6-1.8l1.8-12.3L794,692.3C793.6,691,793.3,689.7,792.9,688.5Zm-58.4,68.6a31.6,31.6,0,0,1,9.3,3.7l8.2,4.9-16.3-8Z"></path><path class="u" d="M769.5,622.5c-.1,0-.1.1-.1.2l-.2-.2Zm4.7-23.9-8,19.5c-.2.6-.3,1.1-.5,1.6-3.8-2.8-9-4.4-15.3-5s-16.2-.2-29.1.7a63.9,63.9,0,0,1-11.1-24.1,52.3,52.3,0,0,1,.6-26.1l7.6.3c-.6,5.5,1.6,9,6.5,10.6,3.1.5,5.4,1,6.9,1.4a18.8,18.8,0,0,1,6.5,2.9c9.3,5,17.2,9,23.8,12.3l4.9,2.4Z"></path><path class="a" d="M746.1,641.2l-16.2,12.7-9.1.7A158.5,158.5,0,0,0,681,665.3a44.1,44.1,0,0,0-5.4,2.4l-35.8,19.7c-8.8-8.9-17.6-18.5-26.3-28.5a44.8,44.8,0,0,1,2.1-5.5c2-3.3,3.5-6,4.5-8,6.8.4,15.3.9,25.7,1.7,17.8,1.5,32,3.8,42.7,7,8,1,17.7-.1,29-3.2l2.7-.8C732.3,646.4,741,643.5,746.1,641.2Z"></path><path class="v" d="M729.9,653.9h-.1a148,148,0,0,0-48.9,11.4l-5.3,2.3a44.1,44.1,0,0,1,5.4-2.4,158.5,158.5,0,0,1,39.8-10.7Z"></path><path class="w" d="M833.9,785.6c-11.2-2.5-18-3.8-20.4-4l6.4-2.8c6.5,4,12.4,4.7,17.9,2.2a12,12,0,0,0,5.2-4.2l3.1-11.5c3.9-2.6,8.2-5.2,13.1-7.9l-1.6,11.3c-.2.6-.3,1.2-.5,1.8a6.7,6.7,0,0,1-.3,1.7l-1.9,7.1c-.4,1.1-.9,2.4-1.3,3.8,8.3.8,14.5-3,18.7-11.4a26.7,26.7,0,0,0,1.2-2.4l1.6-6.9-1.6-6a18.6,18.6,0,0,0-4.6-5.3h.1l1.9-1.3,2-1.5h.2l.4-.3a32.7,32.7,0,0,0,3.6-2.3l11.7-7.7h.1c10.9,4,16.9,6.4,18.1,7,6.5,3.5,10.3,8.4,11.1,14.6a26.9,26.9,0,0,1-.1,4.9l-1,4.5-1.9,4.3a49.4,49.4,0,0,1-2.7,4.2l-2.8,3a38.3,38.3,0,0,1-20.5,10.8q-15,3.2-37.8-1.8Z"></path><path class="u" d="M868.9,751.1a18.6,18.6,0,0,1,4.6,5.3l1.6,6-1.6,6.9a26.7,26.7,0,0,1-1.2,2.4c-4.2,8.4-10.4,12.2-18.7,11.4.4-1.4.9-2.7,1.3-3.8l1.9-7.1a6.7,6.7,0,0,0,.3-1.7c.2-.6.3-1.2.5-1.8l1.6-11.3Zm-30.2,18,7.4-3.8L843,776.8a12,12,0,0,1-5.2,4.2c-5.5,2.5-11.4,1.8-17.9-2.2h.1C822.5,777.3,828.7,774,838.7,769.1Z"></path><path class="x" d="M1004.7,449.3h.4c3.3-.6,4.3.9,2.8,4.4L953.5,588.9c-1.4,3.4-3.6,5.4-6.5,6.1h-.7L772.5,625.8h-.6c-1.2.2-2,0-2.4-.5s-.6-1.4-.1-2.7,0-.2.1-.2l.3-1,54.4-135.3c1.4-3.6,3.8-5.6,7.1-6.2ZM866,538.8c-1.8,6-1,11.2,2.2,15.5s7.8,6.4,14.1,6.4,12.2-2.1,18-6.4a29.8,29.8,0,0,0,10.2-13.4,17.2,17.2,0,0,0,.7-2.1c1.5-4.9,1.2-9.2-.7-13a7.2,7.2,0,0,0-1.4-2.4c-3.3-4.3-8-6.4-14.3-6.4a28.4,28.4,0,0,0-17.7,6.4C871.4,527.7,867.7,532.8,866,538.8Z"></path><path class="y" d="M774.2,598.6l46.1-114.7c1.5-3.6,3.8-5.7,7.1-6.4l83.1-14.7,17.3-3,73.5-13.1c2.6-.4,3.7.5,3.4,2.6L831.3,480c-3.3.6-5.7,2.6-7.1,6.2L769.8,621.5l-.3,1h-.4c-2.8.5-3.9-.4-3.4-2.8.2-.5.3-1,.5-1.6Zm-44.3,55.3,16.2-12.7,15.5-12a20,20,0,0,1,7.9-3.8c.4.5,1.2.7,2.4.5h.6l173.8-30.7h.7a4.4,4.4,0,0,1-1.7,1.6l-5.1,4.2L772.4,630.4h-.1a17.1,17.1,0,0,0-7,2.7l-1.6,1.2-25.2,19.6h-8.6ZM866,538.8c1.7-6,5.4-11.1,11.1-15.4a28.4,28.4,0,0,1,17.7-6.4c6.3,0,11,2.1,14.3,6.4a7.2,7.2,0,0,1,1.4,2.4c1.9,3.8,2.2,8.1.7,13a17.2,17.2,0,0,1-.7,2.1,29.8,29.8,0,0,1-10.2,13.4c-5.8,4.3-11.8,6.4-18,6.4s-11-2.1-14.1-6.4S864.2,544.8,866,538.8Z"></path><path class="k" d="M841.1,680l-48.2,8.5a66.5,66.5,0,0,0-2.8-6.9c-5.8-12.3-14.5-20.6-26-25l-13.3-1.8q-6-.6-12.3-.9l25.2-19.6,1.6-1.2a17.1,17.1,0,0,1,7-2.7h.1l167.8-29.6,5.9-1.1c3.4-.6,3.8.1,1.3,2l-12.8,10-18.5,14.5-.3.2h-.2c-4,2.2-11.7,5.6-23,10.2-20.2,8.4-33.9,17.6-41.3,27.5C848.4,668.4,845,673.6,841.1,680Z"></path><path class="z" d="M562,846v3a37.3,37.3,0,0,1-19.7,7,101.4,101.4,0,0,1-30.1-.6,39.6,39.6,0,0,1-16.7-7.1V769.2c.2.7,1.3,1.3,3,2a30.5,30.5,0,0,0,4.1,1.2l2.5.6a136.2,136.2,0,0,0,23.7,1.8,167.7,167.7,0,0,0,18.4-.9l5.1-.7,2.7-.5,1.9-.5q4.4-1.2,5.1-2.4V846Z"></path><path class="g" d="M495.5,846.1v2.2a39.6,39.6,0,0,0,16.7,7.1,101.4,101.4,0,0,0,30.1.6,37.3,37.3,0,0,0,19.7-7v-3h.4q13.8,2.4,13.8,6.3v.7c-.9,1.4-4.2,2.8-10,4.1l-3.8.9a223.1,223.1,0,0,1-33.2,2.1,191.1,191.1,0,0,1-33.6-2.6l-3.7-.7c-6.1-1.4-9.4-2.9-10-4.5v-.5C481.9,849.7,486.5,847.7,495.5,846.1Z"></path><path class="aa" d="M259.6,396.6a18.3,18.3,0,0,1,4.1,12.1,32.1,32.1,0,0,1-.2,3.6,23.5,23.5,0,0,1-1.7,6.7c-3,6.2-8.7,9.4-17.1,9.4-6.5,0-11.5-2.5-15.1-7.5,0-.2-.1-.3-.2-.3a21.3,21.3,0,0,1-3.9-12.2,18.4,18.4,0,0,1,4.1-12.2,17,17,0,0,1,1.9-1.9,17.7,17.7,0,0,1,3.2-2.1,18.6,18.6,0,0,1,9.8-2.5,18.8,18.8,0,0,1,13.2,4.8Zm63-88.4a13.5,13.5,0,0,1,4.7,2.2,10.7,10.7,0,0,1,2.2,1.5,16.9,16.9,0,0,1,5.4,9l.3,2c.1,1,.2,2.1.2,3.2a32.1,32.1,0,0,1-.2,3.6,17.9,17.9,0,0,1-1.8,6.7c-2.7,5.9-8,9-15.7,9.4h-1.5c-6.6,0-11.7-2.6-15.2-7.6a20.8,20.8,0,0,1-4.2-12.4,22.5,22.5,0,0,1,.7-5.2c0-.1.1-.2.1-.3a16.9,16.9,0,0,1,5.2-8.4,24.2,24.2,0,0,1,4-2.5,19.1,19.1,0,0,1,9.3-2.2A19.7,19.7,0,0,1,322.6,308.2Zm-32.7,5.7,1,.8a16.9,16.9,0,0,1,3.9,4.9,20.9,20.9,0,0,1,2,9.3,17.8,17.8,0,0,1-.2,3.5,16.9,16.9,0,0,1-4.9,11.3q-4.9,4.8-14.1,4.8c-6.7,0-11.7-2.5-15.2-7.5a20.2,20.2,0,0,1-4.2-12.4c0-5.9,2-10.5,6.1-13.9a19.3,19.3,0,0,1,13.2-4.7A19.7,19.7,0,0,1,289.9,313.9Zm-24.6-33.3a21.1,21.1,0,0,1-4.3-12.7c0-5.8,2-10.4,6-13.9a19.7,19.7,0,0,1,13.2-4.6,19.4,19.4,0,0,1,13.4,4.7c4,3.5,6,8.2,6,14.2,0,1.3-.1,2.5-.2,3.6a20.3,20.3,0,0,1-2,6.6c-3.1,6.3-8.8,9.4-17.1,9.4A17.8,17.8,0,0,1,265.3,280.6Zm34.2,148.7c.1-1.1.1-2.2.1-3.2a13.3,13.3,0,0,0-4.3-10.2,14.1,14.1,0,0,0-6.5-3.4c0-.5-.1-.9-.1-1.3a20.1,20.1,0,0,1,2-9.2,13.1,13.1,0,0,1,4.1-5,15.5,15.5,0,0,1,7.7-3.5,48,48,0,0,1,5.5-.3,24.1,24.1,0,0,1,8.9,2.5,24.5,24.5,0,0,1,4.4,3l1.7,1.5a15.1,15.1,0,0,1,2.6,3.8,15.9,15.9,0,0,1,1.7,7.5,16.2,16.2,0,0,1-.2,3.4,19.6,19.6,0,0,1-1.9,6.9,15.4,15.4,0,0,1-11.6,8.8,23.9,23.9,0,0,1-5.5.5A19.7,19.7,0,0,1,299.5,429.3Zm.7,41.5a14.9,14.9,0,0,0-.6,4.3,13,13,0,0,0,2.6,8,1.3,1.3,0,0,0-.1.6,24.5,24.5,0,0,1-1.7,6.6,14.5,14.5,0,0,1-2.2,3.6c-.1,0-.1,0-.1.1-3.2,3.9-8.1,5.8-14.8,5.8a18.4,18.4,0,0,1-15.3-7.4,38.5,38.5,0,0,1-2.5-4.2,20.4,20.4,0,0,1-1.8-8.3c0-5.9,2-10.5,6-14a19.9,19.9,0,0,1,13.2-4.7,19.1,19.1,0,0,1,13.3,4.8A16.5,16.5,0,0,1,300.2,470.8Zm65.3-218.7a19.1,19.1,0,0,1,13.3,4.8c4,3.4,6,8.2,6,14.2,0,1.2,0,2.4-.1,3.4a26.3,26.3,0,0,1-1.9,6.7c-3.1,6.4-8.8,9.5-17.2,9.5a17.7,17.7,0,0,1-15-7.5,20.6,20.6,0,0,1-4.3-12.5c0-5.8,2-10.5,6-13.9A19.9,19.9,0,0,1,365.5,252.1Zm-32,145.2a17.2,17.2,0,0,0,4.7.7c6.1,0,10.3-2.5,12.5-7.5a53.4,53.4,0,0,1,1.3-6,19.8,19.8,0,0,1,13,4.3l.3.2a16.8,16.8,0,0,1,4.4,5.6l1,.7,1.1.6h0a10.9,10.9,0,0,1,1.7,1.3c3.9,3.5,5.9,8.2,5.9,14.2a16.2,16.2,0,0,1-.2,3.4,19.5,19.5,0,0,1-1.8,6.9c-2.9,6.2-8.7,9.3-17.2,9.3-5.9,0-10.6-2-14.1-6.2a4.4,4.4,0,0,1-1.2-1.5l-1.5-2.5a18,18,0,0,1-6.6-5.7,20.9,20.9,0,0,1-4.1-12.4h0c0-.8.1-1.6.1-2.4A22.1,22.1,0,0,1,333.5,397.3Zm-42.6,152,.5.4a12.9,12.9,0,0,0,2.8,8,11.6,11.6,0,0,0,5.1,4.2,20.2,20.2,0,0,1,.3,3.6c0,1.3-.1,2.4-.2,3.5a20.9,20.9,0,0,1-2,6.7c-3.1,6.3-8.8,9.5-17.1,9.5a18,18,0,0,1-12.4-4.5l-2.5-2.9h-.1a21.3,21.3,0,0,1-4.3-12.6c0-5.8,2-10.4,6-13.9a18.7,18.7,0,0,1,10.4-4.4,13.2,13.2,0,0,1,2.8-.2A20.5,20.5,0,0,1,290.9,549.3Z"></path><path class="ab" d="M288.8,412.5a14.1,14.1,0,0,1,6.5,3.4,13.3,13.3,0,0,1,4.3,10.2c0,1,0,2.1-.1,3.2a19.8,19.8,0,0,1-1.4,5.2c-2,4.9-6,7.4-12,7.4s-8.8-2-11.3-5.9a17.8,17.8,0,0,1-2.6-9.6c0-4.9,1.4-8.6,4.3-11.2a12.3,12.3,0,0,1,9.4-3.1A14.5,14.5,0,0,1,288.8,412.5Zm13.4,70.6a13,13,0,0,1-2.6-8,14.9,14.9,0,0,1,.6-4.3,11,11,0,0,1,4.1-6.1,15.2,15.2,0,0,1,9.3-3.5h1.2a17.1,17.1,0,0,1,6.5,1.2,14.1,14.1,0,0,1,3.9,2.4,12.3,12.3,0,0,1,4.9,10.4c0-.5-.5,1.5-1.4,6.2s-7,7.8-13.8,7.8a17.1,17.1,0,0,1-8.2-1.8,12.1,12.1,0,0,1-4.4-4C302.2,483.3,302.2,483.2,302.2,483.1Zm-46.7,36.1a14.3,14.3,0,0,1-2.7-8.5,13.2,13.2,0,0,1,4.4-10.3,13.5,13.5,0,0,1,9.4-3.5,13.9,13.9,0,0,1,9.5,3.5,13.3,13.3,0,0,1,4.2,10.3c0-.4-.4,1.8-1.4,6.5s-6.2,7.3-12.1,7.3S258,522.7,255.5,519.2Zm65.9-238.8a18.5,18.5,0,0,1,11.3-3.4,18.7,18.7,0,0,1,11.5,3.4,12,12,0,0,1,5.2,10.3c0-.6-.6,1.4-1.9,5.9s-7.6,7.9-14.8,7.9-11.2-1.8-13.9-5.4a13.4,13.4,0,0,1-2.6-8.4A12,12,0,0,1,321.4,280.4Zm-22.3,112h-2.3a22.4,22.4,0,0,1-7-1,17.5,17.5,0,0,1-8.1-6.4,26.3,26.3,0,0,1-1.6-2.6,19.7,19.7,0,0,1-2.5-9.9c0-5.8,2-10.5,6-13.9a21.6,21.6,0,0,1,13.2-4.7c5.4,0,9.8,1.5,13.4,4.7s6,8.2,6,14.2a33.2,33.2,0,0,1-.2,3.5v.7a20.5,20.5,0,0,1-1.8,6.1C311.4,388.8,306.4,391.9,299.1,392.4Zm52.9-7.9a53.4,53.4,0,0,0-1.3,6c-2.2,5-6.4,7.5-12.5,7.5a17.2,17.2,0,0,1-4.7-.7,10.1,10.1,0,0,1-2.3-1.2,13.3,13.3,0,0,1-3.9-3.6,13.8,13.8,0,0,1-2.9-8.4,19.2,19.2,0,0,1,.8-5.5,13.5,13.5,0,0,1,3.5-4.8,13.1,13.1,0,0,1,7-3.3l2.5-.2a13.6,13.6,0,0,1,9.5,3.5,13.2,13.2,0,0,1,4.4,9.6v1.1ZM300.1,536.8a16.9,16.9,0,0,1,16.8,2.2,12.7,12.7,0,0,1,4.7,10.2c0-.3-.4,1.9-1.3,6.6-2.4,4.8-6.9,7.3-13.6,7.3a20.1,20.1,0,0,1-7.4-1.2,11.6,11.6,0,0,1-5.1-4.2,12.9,12.9,0,0,1-2.8-8v-1.2a12.3,12.3,0,0,1,4.8-9.5A13.6,13.6,0,0,1,300.1,536.8Zm-21.2,64.6a15.9,15.9,0,0,1,10.5,3.6,13,13,0,0,1,4.8,10.6c0-.5-.5,1.5-1.4,6.1q-3.6,7.5-13.8,7.5c-5.4,0-9.4-1.8-12.2-5.5a12.3,12.3,0,0,1-3.1-8.1c0-4.4,1.5-8,4.7-10.6A15.6,15.6,0,0,1,278.9,601.4Z"></path><path class="ac" d="M289.9,313.9l1.2-.8c2-1.1,5.3-2.1,10-2.9l5.7-.8a24.2,24.2,0,0,0-4,2.5,16.9,16.9,0,0,0-5.2,8.4h-.5l-2.3-.6a16.9,16.9,0,0,0-3.9-4.9Zm83.2,1.9c-.5,1.5-3.4,2.9-9,4.1l-3.2.7a170.2,170.2,0,0,1-25.7,2.3l-.3-2a92.5,92.5,0,0,0,16.6-1.8,35.7,35.7,0,0,0,3.7-.7c3.3-.8,5-1.7,5.3-2.9s-3.3-2.6-9-3.9a129.6,129.6,0,0,0-20.8-1.4l-3.4.2a13.5,13.5,0,0,0-4.7-2.2c2.5-.2,5.2-.2,8.1-.2a176.1,176.1,0,0,1,30.2,2.2c8.1,1.5,12.2,3.2,12.2,5.3Z"></path><path class="ad" d="M327.3,310.4l3.4-.2a129.6,129.6,0,0,1,20.8,1.4q8.5,1.9,9,3.9c-.3,1.2-2,2.1-5.3,2.9a35.7,35.7,0,0,1-3.7.7,92.5,92.5,0,0,1-16.6,1.8,16.9,16.9,0,0,0-5.4-9A10.7,10.7,0,0,0,327.3,310.4Z"></path><path class="ae" d="M335.2,322.9a170.2,170.2,0,0,0,25.7-2.3l3.2-.7c5.6-1.2,8.5-2.6,9-4.1l-7.7,69.9-.3,2.8v.3a19.8,19.8,0,0,0-13-4.3v-1.1a13.2,13.2,0,0,0-4.4-9.6,13.6,13.6,0,0,0-9.5-3.5l-2.5.2a13.1,13.1,0,0,0-7,3.3,13.5,13.5,0,0,0-3.5,4.8,19.2,19.2,0,0,0-.8,5.5,13.8,13.8,0,0,0,2.9,8.4,13.3,13.3,0,0,0,3.9,3.6h-.5c-5,0-9.6-.1-13.8-.4a24.1,24.1,0,0,0-8.9-2.5,48,48,0,0,0-5.5.3,17,17,0,0,1-3.4-1.1c7.3-.5,12.3-3.6,15.1-9.2a20.5,20.5,0,0,0,1.8-6.1v-.7a33.2,33.2,0,0,0,.2-3.5c0-6-2-10.7-6-14.2s-8-4.7-13.4-4.7a17.2,17.2,0,0,0-3.9.4l-1.2-10.7a16.9,16.9,0,0,0,4.9-11.3,17.8,17.8,0,0,0,.2-3.5,20.9,20.9,0,0,0-2-9.3l2.3.6h.5c0,.1-.1.2-.1.3a22.5,22.5,0,0,0-.7,5.2,20.8,20.8,0,0,0,4.2,12.4c3.5,5,8.6,7.6,15.2,7.6h1.5c7.7-.4,13-3.5,15.7-9.4a17.9,17.9,0,0,0,1.8-6.7,32.1,32.1,0,0,0,.2-3.6C335.4,325,335.3,323.9,335.2,322.9Z"></path><path class="af" d="M542.9,763.7a20.9,20.9,0,0,1-1.4,1.7q-.3.1-.3.3a17.3,17.3,0,0,1-11.7,4.7,16.4,16.4,0,0,1-11.8-4.9h-.2l-1.6-1.8a16,16,0,0,1-3.3-10c-.1-17,5-30.8,15.2-41.3a27.3,27.3,0,0,1,13.7-8.6c8.3-3.9,13.8-9.1,16.3-15.5s1.6-9.5-.1-12.7c-4-5.4-7.7-9.3-11-11.7h-.2c-4.4-3.1-11.9-7.7-22.3-13.8q-24.5-14.4-25.8-42.6a43.3,43.3,0,0,1,3.3-21.1c.5-1.2,1.1-2.4,1.8-3.7h51.7c-2.8,2-5.7,3.9-8.8,5.8l-4,2.4h-.1c-6.6,3.7-10,8.6-10.1,14.8a17.6,17.6,0,0,0,9.2,15.2l8.9,5.3c6.7,4.1,11.8,7.3,15.2,9.7h.1l1.2.8c5.5,3.8,11.4,9.8,17.8,18.1a35.4,35.4,0,0,1,3.6,5.3c5.9,10.2,6.6,22.9,1.9,38.1h0a49.2,49.2,0,0,1-15.4,23.8,78.6,78.6,0,0,1-21.5,13.2l-1.1.4c-3.9,4.6-5.8,10.4-5.7,17.6A16.4,16.4,0,0,1,542.9,763.7Z"></path><path class="e" d="M474.6,718.4c2,7,2,13.8,1.9,20.7s-.6,14.2-7.8,18c-.3-2.9-1.8-6-1.3-8.7.1-.6-1.4,0-1.5.2a11.9,11.9,0,0,1-.7-4.9c0-1.5.2-3.1.3-4.7a36.5,36.5,0,0,0,.1-4.7c-.5-4.7-1-9.4-1.6-14.2a130.2,130.2,0,0,1-.7-17.6c.3-5.1.7-14.6,5.4-1.7C470.7,706.4,473.3,713.7,474.6,718.4Z"></path></svg>